M48
;Layer_Color=9474304
;FILE_FORMAT=4:4
METRIC,LZ
;TYPE=PLATED
T1F00S00C0.3000
T2F00S00C0.4000
T4F00S00C0.7000
T5F00S00C0.7112
T6F00S00C1.0000
T7F00S00C1.0668
T8F00S00C1.1000
T9F00S00C1.5000
T11F00S00C3.1500
;TYPE=NON_PLATED
T12F00S00C0.5000
%
T01
X00231Y00161
X00235Y00207
X00283359Y00120359
X00307Y0012
X00323
X00347
X00359Y00085
X00339Y00078
X00331
X00344Y00053
X004Y00186
Y00194
X00463Y00195
X00525
X00551277Y00191982
X00575Y00194
X00158Y00166
X00144Y00155
X00114Y00104
Y00098
X001Y001075
X00088825Y000165
X00076Y00018
X00173Y00058
X00209Y00102
X00136909Y00246014
X00224Y003
X00239Y00351
X00412Y00371
X00424Y00287
X00535Y00269
X00555Y00252
X00585Y00234
X00502Y00235
T02
X0007Y00055
X0008
X0009
Y00065
X001
X0011
X0012
Y00055
X0011
X001
X0008Y00065
X0007
T04
X00085Y00145
X00105
Y00205
X00085
T05
X00285Y0005
X00435
X00465
X00495
X00525
X00555
X0057Y0002
Y0014
X00525Y0011
X0051Y0008
X0045Y0002
X0042
X00435Y0017
X0036Y002
X00195Y0005
X00045
Y0023
X00105
X00045Y0029
X00135Y0035
X00255
X0033Y0032
X00405Y0035
X00435
X0045Y0032
X0054
X0048Y0026
T06
X002319Y0033
X002573
X002827Y0033
X003081
X00567Y003327
X00567Y003073
Y002819
X00567Y003581
T07
X00026Y000565
Y000819
Y001073
Y001327
Y001581
Y001835
T08
X00475Y0002
X00525
Y00165
X005
X00475
T09
X0004Y00265
Y00315
T11
X00385Y0009
X00155
Y00325
X00385
T12
X004545Y0036175
X005205
M30
