G04*
G04 #@! TF.GenerationSoftware,Altium Limited,Altium Designer,23.4.1 (23)*
G04*
G04 Layer_Color=65535*
%FSLAX44Y44*%
%MOMM*%
G71*
G04*
G04 #@! TF.SameCoordinates,9FFFCCE3-57C6-44D0-9ABF-11A32D4D8937*
G04*
G04*
G04 #@! TF.FilePolarity,Positive*
G04*
G01*
G75*
%ADD10C,0.2540*%
%ADD11C,0.2000*%
%ADD12C,0.5080*%
%ADD13C,0.1524*%
%ADD14C,0.2032*%
%ADD15C,0.1270*%
%ADD16C,0.1500*%
%ADD17C,0.1200*%
%ADD18C,0.1800*%
%ADD19R,1.3970X15.2400*%
D10*
X590000Y360000D02*
G03*
X570000Y380000I-20000J0D01*
G01*
X570000Y0D02*
G03*
X590000Y20000I0J20000D01*
G01*
X0D02*
G03*
X20000Y0I20000J0D01*
G01*
Y380000D02*
G03*
X0Y360000I0J-20000D01*
G01*
X120000Y145000D02*
G03*
X120000Y145000I-25000J0D01*
G01*
Y205000D02*
G03*
X120000Y205000I-25000J0D01*
G01*
X20000Y380000D02*
X570000D01*
X0Y20000D02*
Y360000D01*
X20000Y0D02*
X570000D01*
X590000Y20000D02*
Y360000D01*
X65740Y167860D02*
X78490D01*
X72265Y161610D02*
Y174360D01*
X65740Y227860D02*
X78490D01*
X72265Y221610D02*
Y234360D01*
X320000Y345000D02*
X410000D01*
X130000Y65000D02*
X410000Y65000D01*
X130000Y65000D02*
Y345000D01*
Y345000D02*
X320000Y345000D01*
X410000Y65000D02*
Y345000D01*
X1900Y237060D02*
X78100D01*
Y343740D01*
X1900D02*
X78100D01*
X1900Y237060D02*
Y343740D01*
X5040Y217540D02*
X10118D01*
X7579D01*
Y232775D01*
X5040Y230236D01*
X27893Y217540D02*
X17736D01*
X27893Y227697D01*
Y230236D01*
X25353Y232775D01*
X20275D01*
X17736Y230236D01*
X32971Y232775D02*
Y222618D01*
X38049Y217540D01*
X43128Y222618D01*
Y232775D01*
D11*
X508500Y326750D02*
G03*
X508500Y326750I-1000J0D01*
G01*
X543000Y14000D02*
G03*
X543000Y14000I-1000J0D01*
G01*
X554300Y370800D02*
X579700D01*
X554300Y269200D02*
Y370800D01*
X579700Y269200D02*
Y370800D01*
X554300Y269200D02*
X579700D01*
X498000Y242000D02*
Y245000D01*
X492000Y242000D02*
Y245000D01*
X528500Y265000D02*
Y275000D01*
X511500Y265000D02*
X528500D01*
X511500D02*
Y275000D01*
X417499Y241992D02*
Y275799D01*
X482501Y241992D02*
Y275799D01*
X498750Y280000D02*
X499127Y279999D01*
X490873Y280001D02*
X491250Y280000D01*
X498311Y267250D02*
X498689Y267250D01*
X237000Y28500D02*
Y31500D01*
X243000Y28500D02*
Y31500D01*
X158750Y30000D02*
X159127Y29999D01*
X150873Y30001D02*
X151250Y30000D01*
X153500Y242000D02*
X156500D01*
X153500Y248000D02*
X156500D01*
X201750Y223750D02*
Y226250D01*
X188250Y223750D02*
Y226250D01*
X221750Y223750D02*
Y226250D01*
X208250Y223750D02*
Y226250D01*
X241750Y223750D02*
Y226250D01*
X228250Y223750D02*
Y226250D01*
X106000Y246000D02*
Y274000D01*
X114000D01*
Y254000D02*
Y274000D01*
X106000Y246000D02*
X114000Y254000D01*
Y246000D02*
Y249000D01*
X111000Y246000D02*
X114000Y249000D01*
X111000Y246000D02*
X114000D01*
X105000Y323000D02*
X115000D01*
Y337000D01*
X105000D02*
X115000D01*
X108500Y353000D02*
X111500D01*
X108500Y347000D02*
X111500D01*
X219200Y317300D02*
Y342700D01*
Y317300D02*
X320800D01*
X219200Y342700D02*
X320800D01*
Y317300D02*
Y342700D01*
X197000Y275000D02*
Y285000D01*
X183000D02*
X197000D01*
X183000Y275000D02*
Y285000D01*
X195000Y363750D02*
X195001Y364127D01*
X194999Y355873D02*
X195000Y356250D01*
X207750Y363312D02*
X207750Y363689D01*
X228500Y363000D02*
X231500D01*
X228500Y357000D02*
X231500D01*
X290000Y363750D02*
X290001Y364127D01*
X289999Y355873D02*
X290000Y356250D01*
X302750Y363312D02*
X302750Y363689D01*
X323500Y363000D02*
X326500D01*
X323500Y357000D02*
X326500D01*
X354000Y101500D02*
Y104500D01*
X348000Y101500D02*
Y104500D01*
X210000Y125750D02*
X210001Y126127D01*
X209999Y117873D02*
X210000Y118250D01*
X208500Y134500D02*
X211500D01*
X208500Y140500D02*
X211500D01*
X258750Y30000D02*
X259127Y29999D01*
X250873Y30001D02*
X251250Y30000D01*
X208500Y194500D02*
X211500D01*
X208500Y200500D02*
X211500D01*
X208500Y170500D02*
X211500D01*
X208500Y164500D02*
X211500D01*
X208500Y185500D02*
X211500D01*
X208500Y179500D02*
X211500D01*
X208500Y155500D02*
X211500D01*
X208500Y149500D02*
X211500D01*
X143000Y28500D02*
Y31500D01*
X137000Y28500D02*
Y31500D01*
X456750Y193750D02*
Y196250D01*
X443250Y193750D02*
Y196250D01*
X481750Y193750D02*
Y196250D01*
X468250Y193750D02*
Y196250D01*
X156000Y284000D02*
X159000D01*
X156000Y281000D02*
X159000Y284000D01*
X156000Y281000D02*
Y284000D01*
Y276000D02*
X164000Y284000D01*
X156000Y256000D02*
Y276000D01*
Y256000D02*
X164000D01*
Y284000D01*
X68500Y363000D02*
X71500D01*
X68500Y357000D02*
X71500D01*
X27250Y356311D02*
X27250Y356689D01*
X40000Y363750D02*
X40001Y364127D01*
X39999Y355873D02*
X40000Y356250D01*
X106000Y314000D02*
X109000D01*
X106000Y311000D02*
X109000Y314000D01*
X106000Y311000D02*
Y314000D01*
Y306000D02*
X114000Y314000D01*
X106000Y286000D02*
Y306000D01*
Y286000D02*
X114000D01*
Y314000D01*
X153500Y292000D02*
X156500D01*
X153500Y298000D02*
X156500D01*
X359423Y59452D02*
X357257Y61618D01*
X352925D01*
X350759Y59452D01*
Y57286D01*
X352925Y55120D01*
X357257D01*
X359423Y52954D01*
Y50788D01*
X357257Y48622D01*
X352925D01*
X350759Y50788D01*
X363755Y48622D02*
X368087D01*
X365921D01*
Y57286D01*
X363755D01*
X378917Y44290D02*
X381083D01*
X383249Y46456D01*
Y57286D01*
X376751D01*
X374585Y55120D01*
Y50788D01*
X376751Y48622D01*
X383249D01*
X387581D02*
Y57286D01*
X389747D01*
X391913Y55120D01*
Y48622D01*
Y55120D01*
X394079Y57286D01*
X396245Y55120D01*
Y48622D01*
X402743Y57286D02*
X407075D01*
X409241Y55120D01*
Y48622D01*
X402743D01*
X400577Y50788D01*
X402743Y52954D01*
X409241D01*
X354008Y36891D02*
X345345D01*
Y30393D01*
X349677D01*
X345345D01*
Y23895D01*
X358340D02*
X362672D01*
X360506D01*
Y32559D01*
X358340D01*
X369170Y23895D02*
Y32559D01*
X375668D01*
X377834Y30393D01*
Y23895D01*
X390830Y36891D02*
Y23895D01*
X384332D01*
X382166Y26061D01*
Y30393D01*
X384332Y32559D01*
X390830D01*
X401660Y23895D02*
X397328D01*
X395162Y26061D01*
Y30393D01*
X397328Y32559D01*
X401660D01*
X403826Y30393D01*
Y28227D01*
X395162D01*
X408158Y32559D02*
Y23895D01*
Y28227D01*
X410323Y30393D01*
X412490Y32559D01*
X414655D01*
X358340Y16496D02*
Y7832D01*
X362672Y3500D01*
X367004Y7832D01*
Y16496D01*
X371336Y3500D02*
X375668D01*
X373502D01*
Y16496D01*
X371336Y14330D01*
X382166Y3500D02*
Y5666D01*
X384332D01*
Y3500D01*
X382166D01*
X392996Y14330D02*
X395162Y16496D01*
X399494D01*
X401660Y14330D01*
Y5666D01*
X399494Y3500D01*
X395162D01*
X392996Y5666D01*
Y14330D01*
D12*
X257789Y40750D02*
G03*
X257789Y40750I-3810J0D01*
G01*
X157789D02*
G03*
X157789Y40750I-3810J0D01*
G01*
D13*
X255690Y128723D02*
X390310D01*
Y297379D01*
X255690D02*
X390310D01*
X255690Y128723D02*
Y297379D01*
X271759Y11712D02*
X318241D01*
Y26133D02*
Y33867D01*
X271759Y48288D02*
X318241D01*
X271759Y26133D02*
Y33867D01*
X171759Y11712D02*
X218241D01*
Y26133D02*
Y33867D01*
X171759Y48288D02*
X218241D01*
X171759Y26133D02*
Y33867D01*
X68711Y38791D02*
Y81209D01*
X121289Y38791D02*
Y81209D01*
D14*
X600Y43800D02*
Y196200D01*
Y43800D02*
X57750D01*
X600Y196200D02*
X57750D01*
Y43800D02*
Y196200D01*
D15*
X449500Y376250D02*
X525500D01*
Y346750D02*
Y350750D01*
X449500Y346750D02*
Y350750D01*
X525500Y372750D02*
Y375750D01*
X449500Y372750D02*
Y375750D01*
X562500Y23000D02*
Y56000D01*
X537000Y23000D02*
X562500D01*
X437500D02*
X463000D01*
X437500D02*
Y56000D01*
X562500Y124000D02*
Y157000D01*
X537000D02*
X562500D01*
X437500D02*
X463000D01*
X437500Y124000D02*
Y157000D01*
D16*
X189892Y144760D02*
Y190000D01*
X140108Y144760D02*
Y175240D01*
X530500Y285165D02*
X531833Y286497D01*
X534499D01*
X535832Y285165D01*
Y283832D01*
X534499Y282499D01*
X533166D01*
X534499D01*
X535832Y281166D01*
Y279833D01*
X534499Y278500D01*
X531833D01*
X530500Y279833D01*
X538497Y286497D02*
Y281166D01*
X541163Y278500D01*
X543829Y281166D01*
Y286497D01*
X546495Y285165D02*
X547828Y286497D01*
X550494D01*
X551826Y285165D01*
Y283832D01*
X550494Y282499D01*
X549161D01*
X550494D01*
X551826Y281166D01*
Y279833D01*
X550494Y278500D01*
X547828D01*
X546495Y279833D01*
X535832Y360164D02*
X534499Y361497D01*
X531833D01*
X530500Y360164D01*
Y354833D01*
X531833Y353500D01*
X534499D01*
X535832Y354833D01*
Y357499D01*
X533166D01*
X538497Y353500D02*
Y361497D01*
X543829Y353500D01*
Y361497D01*
X546495D02*
Y353500D01*
X550494D01*
X551826Y354833D01*
Y360164D01*
X550494Y361497D01*
X546495D01*
D17*
X141200Y11197D02*
X143866D01*
X142533D01*
Y3200D01*
X141200D01*
X143866D01*
X151863Y11197D02*
X149197D01*
X147865Y9865D01*
Y4533D01*
X149197Y3200D01*
X151863D01*
X153196Y4533D01*
Y9865D01*
X151863Y11197D01*
X155862Y4533D02*
X157195Y3200D01*
X159861D01*
X161194Y4533D01*
Y9865D01*
X159861Y11197D01*
X157195D01*
X155862Y9865D01*
Y8532D01*
X157195Y7199D01*
X161194D01*
X260532Y11197D02*
X255200D01*
Y3200D01*
X260532D01*
X255200Y7199D02*
X257866D01*
X263197Y3200D02*
Y11197D01*
X268529Y3200D01*
Y11197D01*
X250411Y234125D02*
X255743Y228793D01*
X250411D02*
X255743Y234125D01*
X250411Y231459D02*
X255743D01*
X253077Y228793D02*
Y234125D01*
X124778Y90353D02*
X119447Y85021D01*
Y90353D02*
X124778Y85021D01*
X122113Y90353D02*
Y85021D01*
X119447Y87687D02*
X124778D01*
X253335Y309999D02*
Y303334D01*
X254668Y302001D01*
X257334D01*
X258667Y303334D01*
Y309999D01*
X266665D02*
X261333D01*
Y306000D01*
X263999Y307333D01*
X265332D01*
X266665Y306000D01*
Y303334D01*
X265332Y302001D01*
X262666D01*
X261333Y303334D01*
X416335Y303999D02*
Y297334D01*
X417668Y296001D01*
X420334D01*
X421667Y297334D01*
Y303999D01*
X428332Y296001D02*
Y303999D01*
X424333Y300000D01*
X429664D01*
X110836Y108999D02*
Y102334D01*
X112168Y101001D01*
X114834D01*
X116167Y102334D01*
Y108999D01*
X118833Y107666D02*
X120166Y108999D01*
X122832D01*
X124164Y107666D01*
Y106333D01*
X122832Y105000D01*
X121499D01*
X122832D01*
X124164Y103667D01*
Y102334D01*
X122832Y101001D01*
X120166D01*
X118833Y102334D01*
X141335Y206999D02*
Y200334D01*
X142668Y199001D01*
X145334D01*
X146667Y200334D01*
Y206999D01*
X154664Y199001D02*
X149333D01*
X154664Y204333D01*
Y205666D01*
X153332Y206999D01*
X150666D01*
X149333Y205666D01*
X129668Y356999D02*
Y350334D01*
X131001Y349001D01*
X133667D01*
X135000Y350334D01*
Y356999D01*
X137666Y349001D02*
X140332D01*
X138999D01*
Y356999D01*
X137666Y355666D01*
X187168Y60166D02*
X185835Y61499D01*
X183170D01*
X181837Y60166D01*
Y58833D01*
X183170Y57500D01*
X185835D01*
X187168Y56167D01*
Y54834D01*
X185835Y53501D01*
X183170D01*
X181837Y54834D01*
X189834Y61499D02*
Y53501D01*
X192500Y56167D01*
X195166Y53501D01*
Y61499D01*
X203163Y53501D02*
X197832D01*
X203163Y58833D01*
Y60166D01*
X201830Y61499D01*
X199165D01*
X197832Y60166D01*
X288501D02*
X287168Y61499D01*
X284503D01*
X283170Y60166D01*
Y58833D01*
X284503Y57500D01*
X287168D01*
X288501Y56167D01*
Y54834D01*
X287168Y53501D01*
X284503D01*
X283170Y54834D01*
X291167Y61499D02*
Y53501D01*
X293833Y56167D01*
X296499Y53501D01*
Y61499D01*
X299165Y53501D02*
X301830D01*
X300497D01*
Y61499D01*
X299165Y60166D01*
X145003Y231001D02*
Y238999D01*
X149002D01*
X150335Y237666D01*
Y235000D01*
X149002Y233667D01*
X145003D01*
X147669D02*
X150335Y231001D01*
X153001D02*
X155666D01*
X154333D01*
Y238999D01*
X153001Y237666D01*
X159665Y232334D02*
X160998Y231001D01*
X163664D01*
X164997Y232334D01*
Y237666D01*
X163664Y238999D01*
X160998D01*
X159665Y237666D01*
Y236333D01*
X160998Y235000D01*
X164997D01*
X101003Y356001D02*
Y363999D01*
X105002D01*
X106335Y362666D01*
Y360000D01*
X105002Y358667D01*
X101003D01*
X103669D02*
X106335Y356001D01*
X109001D02*
X111666D01*
X110333D01*
Y363999D01*
X109001Y362666D01*
X115665D02*
X116998Y363999D01*
X119664D01*
X120997Y362666D01*
Y361333D01*
X119664Y360000D01*
X120997Y358667D01*
Y357334D01*
X119664Y356001D01*
X116998D01*
X115665Y357334D01*
Y358667D01*
X116998Y360000D01*
X115665Y361333D01*
Y362666D01*
X116998Y360000D02*
X119664D01*
X61003Y366001D02*
Y373999D01*
X65002D01*
X66335Y372666D01*
Y370000D01*
X65002Y368667D01*
X61003D01*
X63669D02*
X66335Y366001D01*
X69001D02*
X71666D01*
X70333D01*
Y373999D01*
X69001Y372666D01*
X75665Y373999D02*
X80997D01*
Y372666D01*
X75665Y367334D01*
Y366001D01*
X142216Y306206D02*
Y314203D01*
X146215D01*
X147548Y312871D01*
Y310205D01*
X146215Y308872D01*
X142216D01*
X144882D02*
X147548Y306206D01*
X150213D02*
X152879D01*
X151546D01*
Y314203D01*
X150213Y312871D01*
X162210Y314203D02*
X159544Y312871D01*
X156878Y310205D01*
Y307539D01*
X158211Y306206D01*
X160877D01*
X162210Y307539D01*
Y308872D01*
X160877Y310205D01*
X156878D01*
X127003Y47001D02*
Y54999D01*
X131002D01*
X132335Y53666D01*
Y51000D01*
X131002Y49667D01*
X127003D01*
X129669D02*
X132335Y47001D01*
X135001D02*
X137666D01*
X136334D01*
Y54999D01*
X135001Y53666D01*
X146997Y54999D02*
X141665D01*
Y51000D01*
X144331Y52333D01*
X145664D01*
X146997Y51000D01*
Y48334D01*
X145664Y47001D01*
X142998D01*
X141665Y48334D01*
X315003Y367001D02*
Y374999D01*
X319002D01*
X320335Y373666D01*
Y371000D01*
X319002Y369667D01*
X315003D01*
X317669D02*
X320335Y367001D01*
X323001D02*
X325666D01*
X324333D01*
Y374999D01*
X323001Y373666D01*
X333664Y367001D02*
Y374999D01*
X329665Y371000D01*
X334997D01*
X221003Y367001D02*
Y374999D01*
X225002D01*
X226335Y373666D01*
Y371000D01*
X225002Y369667D01*
X221003D01*
X223669D02*
X226335Y367001D01*
X229001D02*
X231666D01*
X230334D01*
Y374999D01*
X229001Y373666D01*
X235665D02*
X236998Y374999D01*
X239664D01*
X240997Y373666D01*
Y372333D01*
X239664Y371000D01*
X238331D01*
X239664D01*
X240997Y369667D01*
Y368334D01*
X239664Y367001D01*
X236998D01*
X235665Y368334D01*
X227003Y47001D02*
Y54999D01*
X231002D01*
X232335Y53666D01*
Y51000D01*
X231002Y49667D01*
X227003D01*
X229669D02*
X232335Y47001D01*
X235001D02*
X237666D01*
X236334D01*
Y54999D01*
X235001Y53666D01*
X246997Y47001D02*
X241665D01*
X246997Y52333D01*
Y53666D01*
X245664Y54999D01*
X242998D01*
X241665Y53666D01*
X486336Y258001D02*
Y265999D01*
X490335D01*
X491668Y264666D01*
Y262000D01*
X490335Y260667D01*
X486336D01*
X489002D02*
X491668Y258001D01*
X494334D02*
X496999D01*
X495667D01*
Y265999D01*
X494334Y264666D01*
X500998Y258001D02*
X503664D01*
X502331D01*
Y265999D01*
X500998Y264666D01*
X197503Y203501D02*
Y211499D01*
X201502D01*
X202835Y210166D01*
Y207500D01*
X201502Y206167D01*
X197503D01*
X200169D02*
X202835Y203501D01*
X205501D02*
X208166D01*
X206833D01*
Y211499D01*
X205501Y210166D01*
X212165D02*
X213498Y211499D01*
X216164D01*
X217497Y210166D01*
Y204834D01*
X216164Y203501D01*
X213498D01*
X212165Y204834D01*
Y210166D01*
X364336Y115001D02*
Y122999D01*
X368334D01*
X369667Y121666D01*
Y119000D01*
X368334Y117667D01*
X364336D01*
X367001D02*
X369667Y115001D01*
X372333Y116334D02*
X373666Y115001D01*
X376332D01*
X377664Y116334D01*
Y121666D01*
X376332Y122999D01*
X373666D01*
X372333Y121666D01*
Y120333D01*
X373666Y119000D01*
X377664D01*
X228335Y148501D02*
Y156499D01*
X232334D01*
X233667Y155166D01*
Y152500D01*
X232334Y151167D01*
X228335D01*
X231001D02*
X233667Y148501D01*
X236333Y155166D02*
X237666Y156499D01*
X240332D01*
X241665Y155166D01*
Y153833D01*
X240332Y152500D01*
X241665Y151167D01*
Y149834D01*
X240332Y148501D01*
X237666D01*
X236333Y149834D01*
Y151167D01*
X237666Y152500D01*
X236333Y153833D01*
Y155166D01*
X237666Y152500D02*
X240332D01*
X228335Y134001D02*
Y141999D01*
X232334D01*
X233667Y140666D01*
Y138000D01*
X232334Y136667D01*
X228335D01*
X231001D02*
X233667Y134001D01*
X236333Y141999D02*
X241665D01*
Y140666D01*
X236333Y135334D01*
Y134001D01*
X228335Y163501D02*
Y171499D01*
X232334D01*
X233667Y170166D01*
Y167500D01*
X232334Y166167D01*
X228335D01*
X231001D02*
X233667Y163501D01*
X241665Y171499D02*
X238999Y170166D01*
X236333Y167500D01*
Y164834D01*
X237666Y163501D01*
X240332D01*
X241665Y164834D01*
Y166167D01*
X240332Y167500D01*
X236333D01*
X228335Y178501D02*
Y186499D01*
X232334D01*
X233667Y185166D01*
Y182500D01*
X232334Y181167D01*
X228335D01*
X231001D02*
X233667Y178501D01*
X241665Y186499D02*
X236333D01*
Y182500D01*
X238999Y183833D01*
X240332D01*
X241665Y182500D01*
Y179834D01*
X240332Y178501D01*
X237666D01*
X236333Y179834D01*
X133667Y277334D02*
Y282666D01*
X132334Y283999D01*
X129668D01*
X128336Y282666D01*
Y277334D01*
X129668Y276001D01*
X132334D01*
X131001Y278667D02*
X133667Y276001D01*
X132334D02*
X133667Y277334D01*
X136333Y282666D02*
X137666Y283999D01*
X140332D01*
X141664Y282666D01*
Y281333D01*
X140332Y280000D01*
X138999D01*
X140332D01*
X141664Y278667D01*
Y277334D01*
X140332Y276001D01*
X137666D01*
X136333Y277334D01*
X87667Y268334D02*
Y273666D01*
X86334Y274999D01*
X83668D01*
X82336Y273666D01*
Y268334D01*
X83668Y267001D01*
X86334D01*
X85001Y269667D02*
X87667Y267001D01*
X86334D02*
X87667Y268334D01*
X95665Y267001D02*
X90333D01*
X95665Y272333D01*
Y273666D01*
X94332Y274999D01*
X91666D01*
X90333Y273666D01*
X86000Y307334D02*
Y312666D01*
X84667Y313999D01*
X82001D01*
X80668Y312666D01*
Y307334D01*
X82001Y306001D01*
X84667D01*
X83334Y308667D02*
X86000Y306001D01*
X84667D02*
X86000Y307334D01*
X88666Y306001D02*
X91332D01*
X89999D01*
Y313999D01*
X88666Y312666D01*
X432836Y368001D02*
Y375999D01*
X436834D01*
X438167Y374666D01*
Y372000D01*
X436834Y370667D01*
X432836D01*
X444832Y368001D02*
Y375999D01*
X440833Y372000D01*
X446165D01*
X538335Y367001D02*
Y374999D01*
X542334D01*
X543667Y373666D01*
Y371000D01*
X542334Y369667D01*
X538335D01*
X546333Y373666D02*
X547666Y374999D01*
X550332D01*
X551665Y373666D01*
Y372333D01*
X550332Y371000D01*
X548999D01*
X550332D01*
X551665Y369667D01*
Y368334D01*
X550332Y367001D01*
X547666D01*
X546333Y368334D01*
X3336Y346001D02*
Y353999D01*
X7334D01*
X8667Y352666D01*
Y350000D01*
X7334Y348667D01*
X3336D01*
X16665Y346001D02*
X11333D01*
X16665Y351333D01*
Y352666D01*
X15332Y353999D01*
X12666D01*
X11333Y352666D01*
X668Y199001D02*
Y206999D01*
X4667D01*
X6000Y205666D01*
Y203000D01*
X4667Y201667D01*
X668D01*
X8666Y199001D02*
X11332D01*
X9999D01*
Y206999D01*
X8666Y205666D01*
X437670Y160001D02*
Y167999D01*
X440336Y165333D01*
X443001Y167999D01*
Y160001D01*
X445667Y167999D02*
X450999D01*
X448333D01*
Y160001D01*
X453665D02*
X456330D01*
X454997D01*
Y167999D01*
X453665Y166666D01*
X25338Y373999D02*
Y366001D01*
X30670D01*
X38667Y373999D02*
X33335D01*
Y366001D01*
X38667D01*
X33335Y370000D02*
X36001D01*
X41333Y373999D02*
Y366001D01*
X45332D01*
X46665Y367334D01*
Y372666D01*
X45332Y373999D01*
X41333D01*
X53329Y366001D02*
Y373999D01*
X49330Y370000D01*
X54662D01*
X277338Y374999D02*
Y367001D01*
X282670D01*
X290667Y374999D02*
X285336D01*
Y367001D01*
X290667D01*
X285336Y371000D02*
X288001D01*
X293333Y374999D02*
Y367001D01*
X297332D01*
X298664Y368334D01*
Y373666D01*
X297332Y374999D01*
X293333D01*
X301330Y373666D02*
X302663Y374999D01*
X305329D01*
X306662Y373666D01*
Y372333D01*
X305329Y371000D01*
X303996D01*
X305329D01*
X306662Y369667D01*
Y368334D01*
X305329Y367001D01*
X302663D01*
X301330Y368334D01*
X181338Y374999D02*
Y367001D01*
X186670D01*
X194667Y374999D02*
X189335D01*
Y367001D01*
X194667D01*
X189335Y371000D02*
X192001D01*
X197333Y374999D02*
Y367001D01*
X201332D01*
X202665Y368334D01*
Y373666D01*
X201332Y374999D01*
X197333D01*
X210662Y367001D02*
X205330D01*
X210662Y372333D01*
Y373666D01*
X209329Y374999D01*
X206663D01*
X205330Y373666D01*
X480671Y302999D02*
Y295001D01*
X486003D01*
X494000Y302999D02*
X488668D01*
Y295001D01*
X494000D01*
X488668Y299000D02*
X491334D01*
X496666Y302999D02*
Y295001D01*
X500664D01*
X501997Y296334D01*
Y301666D01*
X500664Y302999D01*
X496666D01*
X504663Y295001D02*
X507329D01*
X505996D01*
Y302999D01*
X504663Y301666D01*
X179337Y310999D02*
Y303001D01*
X183335D01*
X184668Y304334D01*
Y309666D01*
X183335Y310999D01*
X179337D01*
X187334D02*
X192666D01*
Y309666D01*
X187334Y304334D01*
Y303001D01*
X192666D01*
X200663D02*
X195332D01*
X200663Y308333D01*
Y309666D01*
X199330Y310999D01*
X196665D01*
X195332Y309666D01*
X83670Y344999D02*
Y337001D01*
X87668D01*
X89001Y338334D01*
Y343666D01*
X87668Y344999D01*
X83670D01*
X91667D02*
X96999D01*
Y343666D01*
X91667Y338334D01*
Y337001D01*
X96999D01*
X99664D02*
X102330D01*
X100997D01*
Y344999D01*
X99664Y343666D01*
X514668Y300999D02*
Y293001D01*
X518667D01*
X520000Y294334D01*
Y299666D01*
X518667Y300999D01*
X514668D01*
X522666Y293001D02*
X525332D01*
X523999D01*
Y300999D01*
X522666Y299666D01*
X154335Y53666D02*
X153002Y54999D01*
X150336D01*
X149003Y53666D01*
Y48334D01*
X150336Y47001D01*
X153002D01*
X154335Y48334D01*
X157001Y47001D02*
X159666D01*
X158334D01*
Y54999D01*
X157001Y53666D01*
X168997Y47001D02*
X163665D01*
X168997Y52333D01*
Y53666D01*
X167664Y54999D01*
X164998D01*
X163665Y53666D01*
X254668D02*
X253335Y54999D01*
X250669D01*
X249336Y53666D01*
Y48334D01*
X250669Y47001D01*
X253335D01*
X254668Y48334D01*
X257334Y47001D02*
X259999D01*
X258666D01*
Y54999D01*
X257334Y53666D01*
X263998Y47001D02*
X266664D01*
X265331D01*
Y54999D01*
X263998Y53666D01*
X426335Y206666D02*
X425002Y207999D01*
X422336D01*
X421003Y206666D01*
Y201334D01*
X422336Y200001D01*
X425002D01*
X426335Y201334D01*
X429001Y200001D02*
X431666D01*
X430334D01*
Y207999D01*
X429001Y206666D01*
X435665D02*
X436998Y207999D01*
X439664D01*
X440997Y206666D01*
Y201334D01*
X439664Y200001D01*
X436998D01*
X435665Y201334D01*
Y206666D01*
X490667Y207666D02*
X489334Y208999D01*
X486668D01*
X485336Y207666D01*
Y202334D01*
X486668Y201001D01*
X489334D01*
X490667Y202334D01*
X493333D02*
X494666Y201001D01*
X497332D01*
X498665Y202334D01*
Y207666D01*
X497332Y208999D01*
X494666D01*
X493333Y207666D01*
Y206333D01*
X494666Y205000D01*
X498665D01*
X233667Y248666D02*
X232334Y249999D01*
X229668D01*
X228335Y248666D01*
Y243334D01*
X229668Y242001D01*
X232334D01*
X233667Y243334D01*
X236333Y248666D02*
X237666Y249999D01*
X240332D01*
X241665Y248666D01*
Y247333D01*
X240332Y246000D01*
X241665Y244667D01*
Y243334D01*
X240332Y242001D01*
X237666D01*
X236333Y243334D01*
Y244667D01*
X237666Y246000D01*
X236333Y247333D01*
Y248666D01*
X237666Y246000D02*
X240332D01*
X194667Y247666D02*
X193334Y248999D01*
X190668D01*
X189335Y247666D01*
Y242334D01*
X190668Y241001D01*
X193334D01*
X194667Y242334D01*
X197333Y248999D02*
X202665D01*
Y247666D01*
X197333Y242334D01*
Y241001D01*
X213667Y248666D02*
X212334Y249999D01*
X209668D01*
X208335Y248666D01*
Y243334D01*
X209668Y242001D01*
X212334D01*
X213667Y243334D01*
X221665Y249999D02*
X218999Y248666D01*
X216333Y246000D01*
Y243334D01*
X217666Y242001D01*
X220332D01*
X221665Y243334D01*
Y244667D01*
X220332Y246000D01*
X216333D01*
X68667Y182666D02*
X67334Y183999D01*
X64668D01*
X63335Y182666D01*
Y177334D01*
X64668Y176001D01*
X67334D01*
X68667Y177334D01*
X71333Y182666D02*
X72666Y183999D01*
X75332D01*
X76665Y182666D01*
Y181333D01*
X75332Y180000D01*
X73999D01*
X75332D01*
X76665Y178667D01*
Y177334D01*
X75332Y176001D01*
X72666D01*
X71333Y177334D01*
X55667Y230666D02*
X54334Y231999D01*
X51668D01*
X50335Y230666D01*
Y225334D01*
X51668Y224001D01*
X54334D01*
X55667Y225334D01*
X63664Y224001D02*
X58333D01*
X63664Y229333D01*
Y230666D01*
X62332Y231999D01*
X59666D01*
X58333Y230666D01*
X234000Y125666D02*
X232667Y126999D01*
X230001D01*
X228668Y125666D01*
Y120334D01*
X230001Y119001D01*
X232667D01*
X234000Y120334D01*
X236666Y119001D02*
X239332D01*
X237999D01*
Y126999D01*
X236666Y125666D01*
X352336Y374666D02*
X357667Y369334D01*
X352336D02*
X357667Y374666D01*
X352336Y372000D02*
X357667D01*
X355001Y369334D02*
Y374666D01*
X364332Y368001D02*
Y375999D01*
X360333Y372000D01*
X365664D01*
X529336Y236666D02*
X534667Y231334D01*
X529336D02*
X534667Y236666D01*
X529336Y234000D02*
X534667D01*
X532001Y231334D02*
Y236666D01*
X537333D02*
X538666Y237999D01*
X541332D01*
X542664Y236666D01*
Y235333D01*
X541332Y234000D01*
X539999D01*
X541332D01*
X542664Y232667D01*
Y231334D01*
X541332Y230001D01*
X538666D01*
X537333Y231334D01*
X548335Y236666D02*
X553667Y231334D01*
X548335D02*
X553667Y236666D01*
X548335Y234000D02*
X553667D01*
X551001Y231334D02*
Y236666D01*
X561665Y230001D02*
X556333D01*
X561665Y235333D01*
Y236666D01*
X560332Y237999D01*
X557666D01*
X556333Y236666D01*
X569668D02*
X575000Y231334D01*
X569668D02*
X575000Y236666D01*
X569668Y234000D02*
X575000D01*
X572334Y231334D02*
Y236666D01*
X577666Y230001D02*
X580332D01*
X578999D01*
Y237999D01*
X577666Y236666D01*
D18*
X572464Y247131D02*
X570798Y248797D01*
X567466D01*
X565800Y247131D01*
Y245464D01*
X567466Y243798D01*
X570798D01*
X572464Y242132D01*
Y240466D01*
X570798Y238800D01*
X567466D01*
X565800Y240466D01*
X575797Y248797D02*
Y238800D01*
X579129Y242132D01*
X582461Y238800D01*
Y248797D01*
X526302Y250096D02*
X532966D01*
X529634D01*
Y240099D01*
X536299Y246763D02*
X542963Y240099D01*
X539631Y243431D01*
X542963Y246763D01*
X536299Y240099D01*
X546800Y239800D02*
Y249797D01*
X551798D01*
X553465Y248131D01*
Y244798D01*
X551798Y243132D01*
X546800D01*
X550132D02*
X553465Y239800D01*
X556797Y246465D02*
X563461Y239800D01*
X560129Y243132D01*
X563461Y246465D01*
X556797Y239800D01*
X534800Y302800D02*
Y312797D01*
X539798D01*
X541465Y311131D01*
Y307798D01*
X539798Y306132D01*
X534800D01*
X538132D02*
X541465Y302800D01*
X544797Y309464D02*
X551461Y302800D01*
X548129Y306132D01*
X551461Y309464D01*
X544797Y302800D01*
X533800Y338797D02*
X540465D01*
X537132D01*
Y328800D01*
X543797Y335465D02*
X550461Y328800D01*
X547129Y332132D01*
X550461Y335465D01*
X543797Y328800D01*
D19*
X50766Y120001D02*
D03*
M02*
