G04*
G04 #@! TF.GenerationSoftware,Altium Limited,Altium Designer,23.4.1 (23)*
G04*
G04 Layer_Physical_Order=3*
G04 Layer_Color=16440176*
%FSLAX44Y44*%
%MOMM*%
G71*
G04*
G04 #@! TF.SameCoordinates,9FFFCCE3-57C6-44D0-9ABF-11A32D4D8937*
G04*
G04*
G04 #@! TF.FilePolarity,Positive*
G04*
G01*
G75*
%ADD88O,1.5000X2.0000*%
%ADD89C,1.5000*%
%ADD92O,2.1336X1.8288*%
%ADD94R,1.5000X1.5000*%
%ADD96C,0.5000*%
%ADD98R,1.6500X1.6500*%
%ADD99C,1.6500*%
%ADD100O,3.0000X6.0000*%
%ADD102C,3.0000*%
%ADD103C,0.8000*%
G36*
X590000Y234794D02*
X588750Y234746D01*
X588179Y236124D01*
X587124Y237179D01*
X585746Y237750D01*
X584254D01*
X582876Y237179D01*
X581821Y236124D01*
X581250Y234746D01*
Y233254D01*
X581821Y231876D01*
X582876Y230821D01*
X584254Y230250D01*
X585746D01*
X587124Y230821D01*
X588179Y231876D01*
X588750Y233254D01*
X590000Y233206D01*
Y0D01*
X0D01*
Y380000D01*
X590000D01*
Y234794D01*
D02*
G37*
%LPC*%
G36*
X412746Y374750D02*
X411254D01*
X409876Y374179D01*
X408821Y373124D01*
X408250Y371746D01*
Y370254D01*
X408821Y368876D01*
X409876Y367821D01*
X411254Y367250D01*
X412746D01*
X414124Y367821D01*
X415179Y368876D01*
X415750Y370254D01*
Y371746D01*
X415179Y373124D01*
X414124Y374179D01*
X412746Y374750D01*
D02*
G37*
G36*
X568322Y368140D02*
X568270D01*
Y359370D01*
X577040D01*
Y359421D01*
X576356Y361975D01*
X575034Y364264D01*
X573164Y366134D01*
X570875Y367455D01*
X568322Y368140D01*
D02*
G37*
G36*
X565730D02*
X565678D01*
X563125Y367455D01*
X560835Y366134D01*
X558966Y364264D01*
X557644Y361975D01*
X556960Y359421D01*
Y359370D01*
X565730D01*
Y368140D01*
D02*
G37*
G36*
X520500Y373351D02*
X518662Y373109D01*
X516950Y372399D01*
X515479Y371271D01*
X514351Y369800D01*
X513641Y368088D01*
X513399Y366250D01*
Y357250D01*
X513641Y355412D01*
X514351Y353700D01*
X515479Y352229D01*
X516950Y351101D01*
X518662Y350391D01*
X520500Y350149D01*
X522338Y350391D01*
X524050Y351101D01*
X525521Y352229D01*
X526649Y353700D01*
X527359Y355412D01*
X527601Y357250D01*
Y366250D01*
X527359Y368088D01*
X526649Y369800D01*
X525521Y371271D01*
X524050Y372399D01*
X522338Y373109D01*
X520500Y373351D01*
D02*
G37*
G36*
X454500D02*
X452662Y373109D01*
X450950Y372399D01*
X449479Y371271D01*
X448351Y369800D01*
X447641Y368088D01*
X447399Y366250D01*
Y357250D01*
X447641Y355412D01*
X448351Y353700D01*
X449479Y352229D01*
X450950Y351101D01*
X452662Y350391D01*
X454500Y350149D01*
X456338Y350391D01*
X458050Y351101D01*
X459521Y352229D01*
X460649Y353700D01*
X461359Y355412D01*
X461601Y357250D01*
Y366250D01*
X461359Y368088D01*
X460649Y369800D01*
X459521Y371271D01*
X458050Y372399D01*
X456338Y373109D01*
X454500Y373351D01*
D02*
G37*
G36*
X577040Y356830D02*
X568270D01*
Y348060D01*
X568322D01*
X570875Y348744D01*
X573164Y350066D01*
X575034Y351935D01*
X576356Y354224D01*
X577040Y356778D01*
Y356830D01*
D02*
G37*
G36*
X565730D02*
X556960D01*
Y356778D01*
X557644Y354224D01*
X558966Y351935D01*
X560835Y350066D01*
X563125Y348744D01*
X565678Y348060D01*
X565730D01*
Y356830D01*
D02*
G37*
G36*
X239746Y354750D02*
X238254D01*
X236876Y354179D01*
X235821Y353124D01*
X235250Y351746D01*
Y350254D01*
X235821Y348876D01*
X236876Y347821D01*
X238254Y347250D01*
X239746D01*
X241124Y347821D01*
X242179Y348876D01*
X242750Y350254D01*
Y351746D01*
X242179Y353124D01*
X241124Y354179D01*
X239746Y354750D01*
D02*
G37*
G36*
X241940Y340040D02*
X233170D01*
Y331270D01*
X241940D01*
Y340040D01*
D02*
G37*
G36*
X230630D02*
X221860D01*
Y331270D01*
X230630D01*
Y340040D01*
D02*
G37*
G36*
X568152Y341450D02*
X565848D01*
X563622Y340853D01*
X561627Y339701D01*
X559998Y338072D01*
X558846Y336077D01*
X558250Y333852D01*
Y331548D01*
X558846Y329322D01*
X559998Y327327D01*
X561627Y325698D01*
X563622Y324546D01*
X565848Y323950D01*
X568152D01*
X570377Y324546D01*
X572372Y325698D01*
X574002Y327327D01*
X575154Y329322D01*
X575750Y331548D01*
Y333852D01*
X575154Y336077D01*
X574002Y338072D01*
X572372Y339701D01*
X570377Y340853D01*
X568152Y341450D01*
D02*
G37*
G36*
X309252Y338750D02*
X306948D01*
X304722Y338154D01*
X302727Y337002D01*
X301098Y335373D01*
X299946Y333378D01*
X299350Y331152D01*
Y328848D01*
X299946Y326623D01*
X301098Y324627D01*
X302727Y322998D01*
X304722Y321847D01*
X306948Y321250D01*
X309252D01*
X311477Y321847D01*
X313472Y322998D01*
X315101Y324627D01*
X316253Y326623D01*
X316850Y328848D01*
Y331152D01*
X316253Y333378D01*
X315101Y335373D01*
X313472Y337002D01*
X311477Y338154D01*
X309252Y338750D01*
D02*
G37*
G36*
X283852D02*
X281548D01*
X279322Y338154D01*
X277327Y337002D01*
X275698Y335373D01*
X274546Y333378D01*
X273950Y331152D01*
Y328848D01*
X274546Y326623D01*
X275698Y324627D01*
X277327Y322998D01*
X279322Y321847D01*
X281548Y321250D01*
X283852D01*
X286077Y321847D01*
X288072Y322998D01*
X289701Y324627D01*
X290853Y326623D01*
X291450Y328848D01*
Y331152D01*
X290853Y333378D01*
X289701Y335373D01*
X288072Y337002D01*
X286077Y338154D01*
X283852Y338750D01*
D02*
G37*
G36*
X258452Y338750D02*
X256148D01*
X253923Y338153D01*
X251928Y337002D01*
X250299Y335373D01*
X249147Y333377D01*
X248550Y331152D01*
Y328848D01*
X249147Y326622D01*
X250299Y324627D01*
X251928Y322998D01*
X253923Y321846D01*
X256148Y321250D01*
X258452D01*
X260678Y321846D01*
X262673Y322998D01*
X264302Y324627D01*
X265454Y326622D01*
X266050Y328848D01*
Y331152D01*
X265454Y333377D01*
X264302Y335373D01*
X262673Y337002D01*
X260678Y338153D01*
X258452Y338750D01*
D02*
G37*
G36*
X241940Y328730D02*
X233170D01*
Y319960D01*
X241940D01*
Y328730D01*
D02*
G37*
G36*
X230630D02*
X221860D01*
Y319960D01*
X230630D01*
Y328730D01*
D02*
G37*
G36*
X41727Y332540D02*
X41270D01*
Y316270D01*
X57540D01*
Y316728D01*
X56866Y320116D01*
X55544Y323308D01*
X53624Y326181D01*
X51181Y328624D01*
X48308Y330544D01*
X45116Y331866D01*
X41727Y332540D01*
D02*
G37*
G36*
X38730D02*
X38273D01*
X34884Y331866D01*
X31692Y330544D01*
X28819Y328624D01*
X26376Y326181D01*
X24456Y323308D01*
X23134Y320116D01*
X22460Y316728D01*
Y316270D01*
X38730D01*
Y332540D01*
D02*
G37*
G36*
X387093Y346250D02*
X382907D01*
X378802Y345433D01*
X374934Y343831D01*
X371454Y341506D01*
X368494Y338546D01*
X366169Y335066D01*
X364567Y331198D01*
X363750Y327093D01*
Y322907D01*
X364567Y318802D01*
X366169Y314934D01*
X368494Y311454D01*
X371454Y308494D01*
X374934Y306168D01*
X378802Y304567D01*
X382907Y303750D01*
X387093D01*
X391198Y304567D01*
X395066Y306168D01*
X398546Y308494D01*
X401506Y311454D01*
X403831Y314934D01*
X405433Y318802D01*
X406250Y322907D01*
Y327093D01*
X405433Y331198D01*
X403831Y335066D01*
X401506Y338546D01*
X398546Y341506D01*
X395066Y343831D01*
X391198Y345433D01*
X387093Y346250D01*
D02*
G37*
G36*
X157093D02*
X152907D01*
X148802Y345433D01*
X144934Y343831D01*
X141454Y341506D01*
X138494Y338546D01*
X136168Y335066D01*
X134567Y331198D01*
X133750Y327093D01*
Y322907D01*
X134567Y318802D01*
X136168Y314934D01*
X138494Y311454D01*
X141454Y308494D01*
X144934Y306168D01*
X148802Y304567D01*
X152907Y303750D01*
X157093D01*
X161198Y304567D01*
X165066Y306168D01*
X168546Y308494D01*
X171506Y311454D01*
X173832Y314934D01*
X175433Y318802D01*
X176250Y322907D01*
Y327093D01*
X175433Y331198D01*
X173832Y335066D01*
X171506Y338546D01*
X168546Y341506D01*
X165066Y343831D01*
X161198Y345433D01*
X157093Y346250D01*
D02*
G37*
G36*
X568152Y316050D02*
X565848D01*
X563623Y315454D01*
X561628Y314302D01*
X559998Y312673D01*
X558847Y310678D01*
X558250Y308452D01*
Y306148D01*
X558847Y303923D01*
X559998Y301928D01*
X561628Y300299D01*
X563623Y299147D01*
X565848Y298550D01*
X568152D01*
X570378Y299147D01*
X572373Y300299D01*
X574002Y301928D01*
X575154Y303923D01*
X575750Y306148D01*
Y308452D01*
X575154Y310678D01*
X574002Y312673D01*
X572373Y314302D01*
X570378Y315454D01*
X568152Y316050D01*
D02*
G37*
G36*
X57540Y313730D02*
X41270D01*
Y297460D01*
X41727D01*
X45116Y298134D01*
X48308Y299456D01*
X51181Y301376D01*
X53624Y303819D01*
X55544Y306692D01*
X56866Y309884D01*
X57540Y313272D01*
Y313730D01*
D02*
G37*
G36*
X38730D02*
X22460D01*
Y313272D01*
X23134Y309884D01*
X24456Y306692D01*
X26376Y303819D01*
X28819Y301376D01*
X31692Y299456D01*
X34884Y298134D01*
X38273Y297460D01*
X38730D01*
Y313730D01*
D02*
G37*
G36*
X224746Y303750D02*
X223254D01*
X221876Y303179D01*
X220821Y302124D01*
X220250Y300746D01*
Y299254D01*
X220821Y297876D01*
X221876Y296821D01*
X223254Y296250D01*
X224746D01*
X226124Y296821D01*
X227179Y297876D01*
X227750Y299254D01*
Y300746D01*
X227179Y302124D01*
X226124Y303179D01*
X224746Y303750D01*
D02*
G37*
G36*
X424746Y290750D02*
X423254D01*
X421876Y290179D01*
X420821Y289124D01*
X420250Y287746D01*
Y286254D01*
X420821Y284876D01*
X421876Y283821D01*
X423254Y283250D01*
X424746D01*
X426124Y283821D01*
X427179Y284876D01*
X427750Y286254D01*
Y287746D01*
X427179Y289124D01*
X426124Y290179D01*
X424746Y290750D01*
D02*
G37*
G36*
X575750Y290650D02*
X558250D01*
Y273150D01*
X575750D01*
Y290650D01*
D02*
G37*
G36*
X535746Y272750D02*
X534254D01*
X532876Y272179D01*
X531821Y271124D01*
X531250Y269746D01*
Y268254D01*
X531821Y266876D01*
X532876Y265821D01*
X534254Y265250D01*
X535746D01*
X537124Y265821D01*
X538179Y266876D01*
X538750Y268254D01*
Y269746D01*
X538179Y271124D01*
X537124Y272179D01*
X535746Y272750D01*
D02*
G37*
G36*
X56270Y281270D02*
X23730D01*
Y248730D01*
X56270D01*
Y281270D01*
D02*
G37*
G36*
X555746Y255750D02*
X554254D01*
X552876Y255179D01*
X551821Y254124D01*
X551250Y252746D01*
Y251254D01*
X551821Y249876D01*
X552876Y248821D01*
X554254Y248250D01*
X555746D01*
X557124Y248821D01*
X558179Y249876D01*
X558750Y251254D01*
Y252746D01*
X558179Y254124D01*
X557124Y255179D01*
X555746Y255750D01*
D02*
G37*
G36*
X389040Y297462D02*
X256960D01*
X256003Y297066D01*
X255607Y296109D01*
Y242007D01*
X256003Y241050D01*
X256960Y240654D01*
X389040D01*
X389997Y241050D01*
X390393Y242007D01*
Y296109D01*
X389997Y297066D01*
X389040Y297462D01*
D02*
G37*
G36*
X103730Y217460D02*
X102379Y217282D01*
X99937Y216270D01*
X97839Y214661D01*
X96230Y212563D01*
X95218Y210121D01*
X95040Y208766D01*
X93770Y208849D01*
Y216270D01*
X76230D01*
Y193730D01*
X93770D01*
Y201151D01*
X95040Y201234D01*
X95218Y199879D01*
X96230Y197437D01*
X97839Y195339D01*
X99937Y193730D01*
X102379Y192718D01*
X103730Y192541D01*
Y205000D01*
Y217460D01*
D02*
G37*
G36*
X106270D02*
Y206270D01*
X115127D01*
Y207500D01*
X114782Y210121D01*
X113770Y212563D01*
X112161Y214661D01*
X110063Y216270D01*
X107621Y217282D01*
X106270Y217460D01*
D02*
G37*
G36*
X235746Y210750D02*
X234254D01*
X232876Y210179D01*
X231821Y209124D01*
X231250Y207746D01*
Y206254D01*
X231821Y204876D01*
X232876Y203821D01*
X234254Y203250D01*
X235746D01*
X237124Y203821D01*
X238179Y204876D01*
X238750Y206254D01*
Y207746D01*
X238179Y209124D01*
X237124Y210179D01*
X235746Y210750D01*
D02*
G37*
G36*
X115127Y203730D02*
X106270D01*
Y192541D01*
X107621Y192718D01*
X110063Y193730D01*
X112161Y195339D01*
X113770Y197437D01*
X114782Y199879D01*
X115127Y202500D01*
Y203730D01*
D02*
G37*
G36*
X525746Y198750D02*
X524254D01*
X522876Y198179D01*
X521821Y197124D01*
X521250Y195746D01*
Y194254D01*
X521821Y192876D01*
X522876Y191821D01*
X524254Y191250D01*
X525746D01*
X527124Y191821D01*
X528179Y192876D01*
X528750Y194254D01*
Y195746D01*
X528179Y197124D01*
X527124Y198179D01*
X525746Y198750D01*
D02*
G37*
G36*
X575746Y197750D02*
X574254D01*
X572876Y197179D01*
X571821Y196124D01*
X571250Y194746D01*
Y193254D01*
X571821Y191876D01*
X572876Y190821D01*
X574254Y190250D01*
X575746D01*
X577124Y190821D01*
X578179Y191876D01*
X578750Y193254D01*
Y194746D01*
X578179Y196124D01*
X577124Y197179D01*
X575746Y197750D01*
D02*
G37*
G36*
X464094Y200500D02*
X461906D01*
X459884Y199663D01*
X458337Y198116D01*
X457500Y196094D01*
Y193906D01*
X458337Y191884D01*
X459884Y190337D01*
X461906Y189500D01*
X464094D01*
X466115Y190337D01*
X467663Y191884D01*
X468500Y193906D01*
Y196094D01*
X467663Y198116D01*
X466115Y199663D01*
X464094Y200500D01*
D02*
G37*
G36*
X552023Y195732D02*
X550531D01*
X549153Y195161D01*
X548098Y194106D01*
X547527Y192728D01*
Y191236D01*
X548098Y189858D01*
X549153Y188803D01*
X550531Y188232D01*
X552023D01*
X553401Y188803D01*
X554456Y189858D01*
X555027Y191236D01*
Y192728D01*
X554456Y194106D01*
X553401Y195161D01*
X552023Y195732D01*
D02*
G37*
G36*
X400746Y197750D02*
X399254D01*
X397876Y197179D01*
X396821Y196124D01*
X396250Y194746D01*
Y193254D01*
X396821Y191876D01*
X397876Y190821D01*
X398198Y190687D01*
Y189313D01*
X397876Y189179D01*
X396821Y188124D01*
X396250Y186746D01*
Y185254D01*
X396821Y183876D01*
X397876Y182821D01*
X399254Y182250D01*
X400746D01*
X402124Y182821D01*
X403179Y183876D01*
X403750Y185254D01*
Y186746D01*
X403179Y188124D01*
X402124Y189179D01*
X401802Y189313D01*
Y190687D01*
X402124Y190821D01*
X403179Y191876D01*
X403750Y193254D01*
Y194746D01*
X403179Y196124D01*
X402124Y197179D01*
X400746Y197750D01*
D02*
G37*
G36*
X27524Y193984D02*
X24476D01*
X21763Y193626D01*
X19234Y192579D01*
X17063Y190913D01*
X15397Y188742D01*
X14349Y186213D01*
X13992Y183500D01*
X14349Y180787D01*
X15397Y178258D01*
X17063Y176087D01*
X19234Y174421D01*
X21763Y173374D01*
X24476Y173016D01*
X27524D01*
X30237Y173374D01*
X32766Y174421D01*
X34937Y176087D01*
X36603Y178258D01*
X37650Y180787D01*
X38008Y183500D01*
X37650Y186213D01*
X36603Y188742D01*
X34937Y190913D01*
X32766Y192579D01*
X30237Y193626D01*
X27524Y193984D01*
D02*
G37*
G36*
X501421Y175790D02*
X501270D01*
Y166270D01*
X510790D01*
Y166420D01*
X510055Y169165D01*
X508634Y171625D01*
X506625Y173634D01*
X504165Y175055D01*
X501421Y175790D01*
D02*
G37*
G36*
X498730D02*
X498579D01*
X495835Y175055D01*
X493375Y173634D01*
X491366Y171625D01*
X489945Y169165D01*
X489210Y166420D01*
Y166270D01*
X498730D01*
Y175790D01*
D02*
G37*
G36*
X158746Y169750D02*
X157254D01*
X155876Y169179D01*
X154821Y168124D01*
X154250Y166746D01*
Y165254D01*
X154821Y163876D01*
X155876Y162821D01*
X157254Y162250D01*
X158746D01*
X160124Y162821D01*
X161179Y163876D01*
X161750Y165254D01*
Y166746D01*
X161179Y168124D01*
X160124Y169179D01*
X158746Y169750D01*
D02*
G37*
G36*
X231746Y164750D02*
X230254D01*
X228876Y164179D01*
X227821Y163124D01*
X227250Y161746D01*
Y160254D01*
X227821Y158876D01*
X228876Y157821D01*
X230254Y157250D01*
X231746D01*
X233124Y157821D01*
X234179Y158876D01*
X234750Y160254D01*
Y161746D01*
X234179Y163124D01*
X233124Y164179D01*
X231746Y164750D01*
D02*
G37*
G36*
X526251Y174500D02*
X523749D01*
X521333Y173853D01*
X519167Y172602D01*
X517398Y170833D01*
X516147Y168667D01*
X515500Y166251D01*
Y163749D01*
X516147Y161333D01*
X517398Y159167D01*
X519167Y157398D01*
X521333Y156147D01*
X523749Y155500D01*
X526251D01*
X528667Y156147D01*
X530833Y157398D01*
X532602Y159167D01*
X533853Y161333D01*
X534500Y163749D01*
Y166251D01*
X533853Y168667D01*
X532602Y170833D01*
X530833Y172602D01*
X528667Y173853D01*
X526251Y174500D01*
D02*
G37*
G36*
X476251D02*
X473749D01*
X471333Y173853D01*
X469167Y172602D01*
X467398Y170833D01*
X466147Y168667D01*
X465500Y166251D01*
Y163749D01*
X466147Y161333D01*
X467398Y159167D01*
X469167Y157398D01*
X471333Y156147D01*
X473749Y155500D01*
X476251D01*
X478667Y156147D01*
X480833Y157398D01*
X482602Y159167D01*
X483853Y161333D01*
X484500Y163749D01*
Y166251D01*
X483853Y168667D01*
X482602Y170833D01*
X480833Y172602D01*
X478667Y173853D01*
X476251Y174500D01*
D02*
G37*
G36*
X510790Y163730D02*
X501270D01*
Y154210D01*
X501421D01*
X504165Y154945D01*
X506625Y156366D01*
X508634Y158375D01*
X510055Y160835D01*
X510790Y163580D01*
Y163730D01*
D02*
G37*
G36*
X498730D02*
X489210D01*
Y163580D01*
X489945Y160835D01*
X491366Y158375D01*
X493375Y156366D01*
X495835Y154945D01*
X498579Y154210D01*
X498730D01*
Y163730D01*
D02*
G37*
G36*
X144746Y158750D02*
X143254D01*
X141876Y158179D01*
X140821Y157124D01*
X140250Y155746D01*
Y154254D01*
X140821Y152876D01*
X141876Y151821D01*
X143254Y151250D01*
X144746D01*
X146124Y151821D01*
X147179Y152876D01*
X147750Y154254D01*
Y155746D01*
X147179Y157124D01*
X146124Y158179D01*
X144746Y158750D01*
D02*
G37*
G36*
X103730Y157459D02*
X102379Y157282D01*
X99937Y156270D01*
X97839Y154661D01*
X96230Y152563D01*
X95218Y150121D01*
X95040Y148765D01*
X93770Y148849D01*
Y156270D01*
X76230D01*
Y133730D01*
X93770D01*
Y141151D01*
X95040Y141235D01*
X95218Y139879D01*
X96230Y137437D01*
X97839Y135339D01*
X99937Y133730D01*
X102379Y132718D01*
X103730Y132541D01*
Y145000D01*
Y157459D01*
D02*
G37*
G36*
X27524Y168584D02*
X24476D01*
X21763Y168227D01*
X19234Y167179D01*
X17063Y165513D01*
X15397Y163342D01*
X14349Y160813D01*
X13992Y158100D01*
X14349Y155387D01*
X15397Y152858D01*
X17063Y150687D01*
X19234Y149021D01*
X21763Y147973D01*
X24476Y147616D01*
X27524D01*
X30237Y147973D01*
X32766Y149021D01*
X34937Y150687D01*
X36603Y152858D01*
X37650Y155387D01*
X38008Y158100D01*
X37650Y160813D01*
X36603Y163342D01*
X34937Y165513D01*
X32766Y167179D01*
X30237Y168227D01*
X27524Y168584D01*
D02*
G37*
G36*
X106270Y157459D02*
Y146270D01*
X115127D01*
Y147500D01*
X114782Y150121D01*
X113770Y152563D01*
X112161Y154661D01*
X110063Y156270D01*
X107621Y157282D01*
X106270Y157459D01*
D02*
G37*
G36*
X115127Y143730D02*
X106270D01*
Y132541D01*
X107621Y132718D01*
X110063Y133730D01*
X112161Y135339D01*
X113770Y137437D01*
X114782Y139879D01*
X115127Y142500D01*
Y143730D01*
D02*
G37*
G36*
X27270Y143460D02*
X24730D01*
X21945Y143093D01*
X19350Y142018D01*
X17121Y140309D01*
X15411Y138080D01*
X14337Y135485D01*
X13970Y132700D01*
X14337Y129915D01*
X15411Y127320D01*
X17121Y125091D01*
X19350Y123382D01*
X21945Y122307D01*
X24730Y121940D01*
X27270D01*
X30055Y122307D01*
X32650Y123382D01*
X34878Y125091D01*
X36588Y127320D01*
X37663Y129915D01*
X38030Y132700D01*
X37663Y135485D01*
X36588Y138080D01*
X34878Y140309D01*
X32650Y142018D01*
X30055Y143093D01*
X27270Y143460D01*
D02*
G37*
G36*
X284105Y124109D02*
X282613D01*
X281234Y123538D01*
X280180Y122483D01*
X279609Y121105D01*
Y119613D01*
X280180Y118235D01*
X281234Y117180D01*
X282613Y116609D01*
X284105D01*
X285483Y117180D01*
X286538Y118235D01*
X287109Y119613D01*
Y121105D01*
X286538Y122483D01*
X285483Y123538D01*
X284105Y124109D01*
D02*
G37*
G36*
X347746Y123750D02*
X346254D01*
X344876Y123179D01*
X343821Y122124D01*
X343250Y120746D01*
Y119254D01*
X343821Y117876D01*
X344876Y116821D01*
X346254Y116250D01*
X347746D01*
X349124Y116821D01*
X350179Y117876D01*
X350750Y119254D01*
Y120746D01*
X350179Y122124D01*
X349124Y123179D01*
X347746Y123750D01*
D02*
G37*
G36*
X323746D02*
X322254D01*
X320876Y123179D01*
X319821Y122124D01*
X319250Y120746D01*
Y119254D01*
X319821Y117876D01*
X320876Y116821D01*
X322254Y116250D01*
X323746D01*
X325124Y116821D01*
X326179Y117876D01*
X326750Y119254D01*
Y120746D01*
X326179Y122124D01*
X325124Y123179D01*
X323746Y123750D01*
D02*
G37*
G36*
X307746D02*
X306254D01*
X304876Y123179D01*
X303821Y122124D01*
X303250Y120746D01*
Y119254D01*
X303821Y117876D01*
X304876Y116821D01*
X306254Y116250D01*
X307746D01*
X309124Y116821D01*
X310179Y117876D01*
X310750Y119254D01*
Y120746D01*
X310179Y122124D01*
X309124Y123179D01*
X307746Y123750D01*
D02*
G37*
G36*
X27524Y119085D02*
X27270D01*
Y108570D01*
X39142D01*
X38907Y110350D01*
X37730Y113192D01*
X35857Y115633D01*
X33416Y117506D01*
X30574Y118683D01*
X27524Y119085D01*
D02*
G37*
G36*
X24730D02*
X24476D01*
X21426Y118683D01*
X18584Y117506D01*
X16143Y115633D01*
X14270Y113192D01*
X13093Y110350D01*
X12858Y108570D01*
X24730D01*
Y119085D01*
D02*
G37*
G36*
X101094Y113000D02*
X98906D01*
X96884Y112163D01*
X95337Y110616D01*
X94500Y108594D01*
Y106406D01*
X95337Y104384D01*
X96884Y102837D01*
X98906Y102000D01*
X101094D01*
X103116Y102837D01*
X104663Y104384D01*
X105500Y106406D01*
Y108594D01*
X104663Y110616D01*
X103116Y112163D01*
X101094Y113000D01*
D02*
G37*
G36*
X210094Y107500D02*
X207906D01*
X205884Y106663D01*
X204337Y105115D01*
X203500Y103094D01*
Y100906D01*
X204337Y98884D01*
X205884Y97337D01*
X207906Y96500D01*
X210094D01*
X212115Y97337D01*
X213663Y98884D01*
X214500Y100906D01*
Y103094D01*
X213663Y105115D01*
X212115Y106663D01*
X210094Y107500D01*
D02*
G37*
G36*
X39142Y106030D02*
X27270D01*
Y95515D01*
X27524D01*
X30574Y95917D01*
X33416Y97094D01*
X35857Y98967D01*
X37730Y101408D01*
X38907Y104250D01*
X39142Y106030D01*
D02*
G37*
G36*
X24730D02*
X12858D01*
X13093Y104250D01*
X14270Y101408D01*
X16143Y98967D01*
X18584Y97094D01*
X21426Y95917D01*
X24476Y95515D01*
X24730D01*
Y106030D01*
D02*
G37*
G36*
X558270Y122500D02*
Y91270D01*
X574625D01*
Y105000D01*
X574286Y108438D01*
X573283Y111745D01*
X571655Y114792D01*
X569463Y117463D01*
X566792Y119655D01*
X563745Y121283D01*
X560438Y122286D01*
X558270Y122500D01*
D02*
G37*
G36*
X555730Y122500D02*
X553562Y122286D01*
X550255Y121283D01*
X547208Y119655D01*
X544537Y117463D01*
X542345Y114792D01*
X540717Y111745D01*
X539714Y108438D01*
X539375Y105000D01*
Y91270D01*
X555730D01*
Y122500D01*
D02*
G37*
G36*
X444270D02*
Y91270D01*
X460625D01*
Y105000D01*
X460286Y108438D01*
X459283Y111745D01*
X457654Y114792D01*
X455463Y117463D01*
X452792Y119655D01*
X449745Y121283D01*
X446438Y122286D01*
X444270Y122500D01*
D02*
G37*
G36*
X441730Y122500D02*
X439562Y122286D01*
X436255Y121283D01*
X433208Y119655D01*
X430537Y117463D01*
X428345Y114792D01*
X426717Y111745D01*
X425714Y108438D01*
X425375Y105000D01*
Y91270D01*
X441730D01*
Y122500D01*
D02*
G37*
G36*
X359746Y88750D02*
X358254D01*
X356876Y88179D01*
X355821Y87124D01*
X355250Y85746D01*
Y84254D01*
X355821Y82876D01*
X356876Y81821D01*
X358254Y81250D01*
X359746D01*
X361124Y81821D01*
X362179Y82876D01*
X362750Y84254D01*
Y85746D01*
X362179Y87124D01*
X361124Y88179D01*
X359746Y88750D01*
D02*
G37*
G36*
X339746Y81750D02*
X338254D01*
X336876Y81179D01*
X335821Y80124D01*
X335687Y79802D01*
X334313D01*
X334179Y80124D01*
X333124Y81179D01*
X331746Y81750D01*
X330254D01*
X328876Y81179D01*
X327821Y80124D01*
X327250Y78746D01*
Y77254D01*
X327821Y75876D01*
X328876Y74821D01*
X330254Y74250D01*
X331746D01*
X333124Y74821D01*
X334179Y75876D01*
X334313Y76198D01*
X335687D01*
X335821Y75876D01*
X336876Y74821D01*
X338254Y74250D01*
X339746D01*
X341124Y74821D01*
X342179Y75876D01*
X342750Y77254D01*
Y78746D01*
X342179Y80124D01*
X341124Y81179D01*
X339746Y81750D01*
D02*
G37*
G36*
X27524Y92404D02*
X24476D01*
X21757Y92046D01*
X19224Y90997D01*
X17049Y89327D01*
X15379Y87152D01*
X14330Y84619D01*
X13972Y81900D01*
X14330Y79181D01*
X15379Y76648D01*
X17049Y74473D01*
X19224Y72803D01*
X21757Y71754D01*
X24476Y71396D01*
X27524D01*
X30243Y71754D01*
X32776Y72803D01*
X34951Y74473D01*
X36621Y76648D01*
X37670Y79181D01*
X38028Y81900D01*
X37670Y84619D01*
X36621Y87152D01*
X34951Y89327D01*
X32776Y90997D01*
X30243Y92046D01*
X27524Y92404D01*
D02*
G37*
G36*
X387093Y111250D02*
X382907D01*
X378802Y110433D01*
X374934Y108832D01*
X371454Y106506D01*
X368494Y103546D01*
X366169Y100066D01*
X364567Y96198D01*
X363750Y92093D01*
Y87907D01*
X364567Y83802D01*
X366169Y79934D01*
X368494Y76454D01*
X371454Y73494D01*
X374934Y71168D01*
X378802Y69567D01*
X382907Y68750D01*
X387093D01*
X391198Y69567D01*
X395066Y71168D01*
X398546Y73494D01*
X401506Y76454D01*
X403831Y79934D01*
X405433Y83802D01*
X406250Y87907D01*
Y92093D01*
X405433Y96198D01*
X403831Y100066D01*
X401506Y103546D01*
X398546Y106506D01*
X395066Y108832D01*
X391198Y110433D01*
X387093Y111250D01*
D02*
G37*
G36*
X157093D02*
X152907D01*
X148802Y110433D01*
X144934Y108832D01*
X141454Y106506D01*
X138494Y103546D01*
X136168Y100066D01*
X134567Y96198D01*
X133750Y92093D01*
Y87907D01*
X134567Y83802D01*
X136168Y79934D01*
X138494Y76454D01*
X141454Y73494D01*
X144934Y71168D01*
X148802Y69567D01*
X152907Y68750D01*
X157093D01*
X161198Y69567D01*
X165066Y71168D01*
X168546Y73494D01*
X171506Y76454D01*
X173832Y79934D01*
X175433Y83802D01*
X176250Y87907D01*
Y92093D01*
X175433Y96198D01*
X173832Y100066D01*
X171506Y103546D01*
X168546Y106506D01*
X165066Y108832D01*
X161198Y110433D01*
X157093Y111250D01*
D02*
G37*
G36*
X574625Y88730D02*
X558270D01*
Y57500D01*
X560438Y57714D01*
X563745Y58717D01*
X566792Y60346D01*
X569463Y62537D01*
X571655Y65208D01*
X573283Y68255D01*
X574286Y71562D01*
X574625Y75000D01*
Y88730D01*
D02*
G37*
G36*
X441730Y88730D02*
X425375D01*
Y75000D01*
X425714Y71562D01*
X426717Y68255D01*
X428345Y65208D01*
X430537Y62537D01*
X433208Y60346D01*
X436255Y58717D01*
X439562Y57714D01*
X441730Y57500D01*
Y88730D01*
D02*
G37*
G36*
X460625D02*
X444270D01*
Y57500D01*
X446438Y57714D01*
X449745Y58717D01*
X452792Y60346D01*
X455463Y62537D01*
X457654Y65208D01*
X459283Y68255D01*
X460286Y71562D01*
X460625Y75000D01*
Y88730D01*
D02*
G37*
G36*
X555730Y88730D02*
X539375D01*
Y75000D01*
X539714Y71562D01*
X540717Y68255D01*
X542345Y65208D01*
X544537Y62537D01*
X547208Y60346D01*
X550255Y58717D01*
X553562Y57714D01*
X555730Y57500D01*
Y88730D01*
D02*
G37*
G36*
X173746Y61750D02*
X172254D01*
X170876Y61179D01*
X169821Y60124D01*
X169250Y58746D01*
Y57254D01*
X169821Y55876D01*
X170876Y54821D01*
X172254Y54250D01*
X173746D01*
X175124Y54821D01*
X176179Y55876D01*
X176750Y57254D01*
Y58746D01*
X176179Y60124D01*
X175124Y61179D01*
X173746Y61750D01*
D02*
G37*
G36*
X344746Y56750D02*
X343254D01*
X341876Y56179D01*
X340821Y55124D01*
X340250Y53746D01*
Y52254D01*
X340821Y50876D01*
X341876Y49821D01*
X343254Y49250D01*
X344746D01*
X346124Y49821D01*
X347179Y50876D01*
X347750Y52254D01*
Y53746D01*
X347179Y55124D01*
X346124Y56179D01*
X344746Y56750D01*
D02*
G37*
G36*
X37938Y66914D02*
X14062D01*
Y46086D01*
X37938D01*
Y66914D01*
D02*
G37*
G36*
X535790Y30790D02*
X526270D01*
Y21270D01*
X535790D01*
Y30790D01*
D02*
G37*
G36*
X523730D02*
X514210D01*
Y21270D01*
X523730D01*
Y30790D01*
D02*
G37*
G36*
X76746Y21750D02*
X75254D01*
X73876Y21179D01*
X72821Y20124D01*
X72250Y18746D01*
Y17254D01*
X72821Y15876D01*
X73876Y14821D01*
X75254Y14250D01*
X76746D01*
X78124Y14821D01*
X79179Y15876D01*
X79750Y17254D01*
Y18746D01*
X79179Y20124D01*
X78124Y21179D01*
X76746Y21750D01*
D02*
G37*
G36*
X89571Y20250D02*
X88079D01*
X86701Y19679D01*
X85646Y18624D01*
X85075Y17246D01*
Y15754D01*
X85646Y14376D01*
X86701Y13321D01*
X88079Y12750D01*
X89571D01*
X90949Y13321D01*
X92004Y14376D01*
X92575Y15754D01*
Y17246D01*
X92004Y18624D01*
X90949Y19679D01*
X89571Y20250D01*
D02*
G37*
G36*
X476251Y29500D02*
X473749D01*
X471333Y28853D01*
X469167Y27602D01*
X467398Y25833D01*
X466147Y23667D01*
X465500Y21251D01*
Y18749D01*
X466147Y16333D01*
X467398Y14167D01*
X469167Y12398D01*
X471333Y11147D01*
X473749Y10500D01*
X476251D01*
X478667Y11147D01*
X480833Y12398D01*
X482602Y14167D01*
X483853Y16333D01*
X484500Y18749D01*
Y21251D01*
X483853Y23667D01*
X482602Y25833D01*
X480833Y27602D01*
X478667Y28853D01*
X476251Y29500D01*
D02*
G37*
G36*
X535790Y18730D02*
X526270D01*
Y9210D01*
X535790D01*
Y18730D01*
D02*
G37*
G36*
X523730D02*
X514210D01*
Y9210D01*
X523730D01*
Y18730D01*
D02*
G37*
%LPD*%
D88*
X105000Y145000D02*
D03*
Y205000D02*
D03*
D89*
X567000Y358100D02*
D03*
D92*
X26000Y107300D02*
D03*
D94*
X231900Y330000D02*
D03*
D96*
X570000Y320000D02*
D03*
X585000Y170000D02*
D03*
X570000Y140000D02*
D03*
X585000Y110000D02*
D03*
Y50000D02*
D03*
X570000Y20000D02*
D03*
X555000Y350000D02*
D03*
X540000Y320000D02*
D03*
Y260000D02*
D03*
X555000Y50000D02*
D03*
X540000Y20000D02*
D03*
X510000Y320000D02*
D03*
Y200000D02*
D03*
Y140000D02*
D03*
X525000Y110000D02*
D03*
X510000Y80000D02*
D03*
X525000Y50000D02*
D03*
X510000Y20000D02*
D03*
X480000Y320000D02*
D03*
Y260000D02*
D03*
Y140000D02*
D03*
Y80000D02*
D03*
X495000Y50000D02*
D03*
X450000Y320000D02*
D03*
Y140000D02*
D03*
X465000Y110000D02*
D03*
Y50000D02*
D03*
X450000Y20000D02*
D03*
X435000Y350000D02*
D03*
X420000Y260000D02*
D03*
Y200000D02*
D03*
X435000Y170000D02*
D03*
Y50000D02*
D03*
X420000Y20000D02*
D03*
X405000Y350000D02*
D03*
Y290000D02*
D03*
Y230000D02*
D03*
X390000Y200000D02*
D03*
X405000Y50000D02*
D03*
X390000Y20000D02*
D03*
X375000Y350000D02*
D03*
X360000Y320000D02*
D03*
Y200000D02*
D03*
X375000Y50000D02*
D03*
X345000Y350000D02*
D03*
X330000Y320000D02*
D03*
X315000Y350000D02*
D03*
X300000Y80000D02*
D03*
X315000Y50000D02*
D03*
X285000Y350000D02*
D03*
Y170000D02*
D03*
X270000Y80000D02*
D03*
X285000Y50000D02*
D03*
X255000Y350000D02*
D03*
X240000Y260000D02*
D03*
Y200000D02*
D03*
Y80000D02*
D03*
X255000Y50000D02*
D03*
X210000Y140000D02*
D03*
X225000Y110000D02*
D03*
X210000Y80000D02*
D03*
X225000Y50000D02*
D03*
X195000Y350000D02*
D03*
X180000Y320000D02*
D03*
Y260000D02*
D03*
Y200000D02*
D03*
Y80000D02*
D03*
X195000Y50000D02*
D03*
X165000Y350000D02*
D03*
Y230000D02*
D03*
X150000Y200000D02*
D03*
X165000Y170000D02*
D03*
Y50000D02*
D03*
X135000Y350000D02*
D03*
Y230000D02*
D03*
X120000Y200000D02*
D03*
Y140000D02*
D03*
X135000Y50000D02*
D03*
X105000Y230000D02*
D03*
X60000Y320000D02*
D03*
Y80000D02*
D03*
Y20000D02*
D03*
X45000Y290000D02*
D03*
Y230000D02*
D03*
Y110000D02*
D03*
Y50000D02*
D03*
X114000Y98000D02*
D03*
Y104000D02*
D03*
X136909Y246014D02*
D03*
X502000Y235000D02*
D03*
D98*
X525000Y20000D02*
D03*
D99*
X500000Y165000D02*
D03*
D100*
X557000Y90000D02*
D03*
X443000D02*
D03*
D102*
X40000Y315000D02*
D03*
D103*
X120000Y65000D02*
D03*
Y55000D02*
D03*
X70000D02*
D03*
Y65000D02*
D03*
X90000D02*
D03*
X100000D02*
D03*
X110000D02*
D03*
Y55000D02*
D03*
X100000D02*
D03*
X90000D02*
D03*
X80000D02*
D03*
Y65000D02*
D03*
M02*
