G04*
G04 #@! TF.GenerationSoftware,Altium Limited,Altium Designer,23.4.1 (23)*
G04*
G04 Layer_Physical_Order=4*
G04 Layer_Color=16711680*
%FSLAX44Y44*%
%MOMM*%
G71*
G04*
G04 #@! TF.SameCoordinates,9FFFCCE3-57C6-44D0-9ABF-11A32D4D8937*
G04*
G04*
G04 #@! TF.FilePolarity,Positive*
G04*
G01*
G75*
%ADD11C,0.2000*%
G04:AMPARAMS|DCode=24|XSize=0.9mm|YSize=0.8mm|CornerRadius=0.06mm|HoleSize=0mm|Usage=FLASHONLY|Rotation=90.000|XOffset=0mm|YOffset=0mm|HoleType=Round|Shape=RoundedRectangle|*
%AMROUNDEDRECTD24*
21,1,0.9000,0.6800,0,0,90.0*
21,1,0.7800,0.8000,0,0,90.0*
1,1,0.1200,0.3400,0.3900*
1,1,0.1200,0.3400,-0.3900*
1,1,0.1200,-0.3400,-0.3900*
1,1,0.1200,-0.3400,0.3900*
%
%ADD24ROUNDEDRECTD24*%
G04:AMPARAMS|DCode=29|XSize=0.9mm|YSize=0.8mm|CornerRadius=0.06mm|HoleSize=0mm|Usage=FLASHONLY|Rotation=0.000|XOffset=0mm|YOffset=0mm|HoleType=Round|Shape=RoundedRectangle|*
%AMROUNDEDRECTD29*
21,1,0.9000,0.6800,0,0,0.0*
21,1,0.7800,0.8000,0,0,0.0*
1,1,0.1200,0.3900,-0.3400*
1,1,0.1200,-0.3900,-0.3400*
1,1,0.1200,-0.3900,0.3400*
1,1,0.1200,0.3900,0.3400*
%
%ADD29ROUNDEDRECTD29*%
%ADD81C,0.8000*%
%ADD82C,0.5000*%
%ADD85C,0.4000*%
%ADD87R,1.5000X2.0000*%
%ADD88O,1.5000X2.0000*%
%ADD89C,1.5000*%
%ADD90R,1.5000X1.5000*%
%ADD91O,2.1336X1.8796*%
%ADD92O,2.1336X1.8288*%
%ADD93R,2.1336X1.8288*%
%ADD94R,1.5000X1.5000*%
%ADD95C,4.0000*%
%ADD96C,0.5000*%
%ADD97O,0.9000X1.8000*%
%ADD98R,1.6500X1.6500*%
%ADD99C,1.6500*%
%ADD100O,3.0000X6.0000*%
%ADD101R,3.0000X3.0000*%
%ADD102C,3.0000*%
%ADD103C,0.8000*%
G36*
X590000Y234794D02*
X588750Y234746D01*
X588179Y236124D01*
X587124Y237179D01*
X585746Y237750D01*
X584254D01*
X582876Y237179D01*
X581821Y236124D01*
X581250Y234746D01*
Y233254D01*
X581821Y231876D01*
X582706Y230991D01*
Y189950D01*
X530050Y137294D01*
X440000D01*
X439122Y137120D01*
X438378Y136622D01*
X417378Y115622D01*
X416880Y114878D01*
X416706Y114000D01*
Y49950D01*
X410050Y43294D01*
X356950D01*
X347750Y52494D01*
Y53746D01*
X347179Y55124D01*
X346124Y56179D01*
X344746Y56750D01*
X343254D01*
X342564Y56464D01*
X341294Y57257D01*
Y74991D01*
X342179Y75876D01*
X342750Y77254D01*
Y78746D01*
X342179Y80124D01*
X341124Y81179D01*
X340504Y81436D01*
X340757Y82706D01*
X355991D01*
X356876Y81821D01*
X358254Y81250D01*
X359746D01*
X361124Y81821D01*
X362179Y82876D01*
X362750Y84254D01*
Y85746D01*
X362179Y87124D01*
X361124Y88179D01*
X359746Y88750D01*
X358254D01*
X356876Y88179D01*
X355991Y87294D01*
X200000D01*
X199122Y87120D01*
X198378Y86622D01*
X173506Y61750D01*
X172254D01*
X170876Y61179D01*
X169821Y60124D01*
X169250Y58746D01*
Y57254D01*
X169821Y55876D01*
X170876Y54821D01*
X172254Y54250D01*
X173746D01*
X175124Y54821D01*
X176179Y55876D01*
X176750Y57254D01*
Y58506D01*
X200950Y82706D01*
X329243D01*
X329496Y81436D01*
X328876Y81179D01*
X327821Y80124D01*
X327250Y78746D01*
Y77254D01*
X327821Y75876D01*
X328706Y74991D01*
Y41450D01*
X310800Y23544D01*
X83250D01*
X82372Y23370D01*
X81628Y22872D01*
X80378Y21622D01*
X80378Y21622D01*
X79712Y20956D01*
X78347D01*
X78124Y21179D01*
X76746Y21750D01*
X75254D01*
X73876Y21179D01*
X72821Y20124D01*
X72250Y18746D01*
Y17254D01*
X72821Y15876D01*
X73876Y14821D01*
X75254Y14250D01*
X76746D01*
X78124Y14821D01*
X79179Y15876D01*
X79316Y16206D01*
X80500D01*
X81378Y16381D01*
X82122Y16878D01*
X83410Y18165D01*
X84055Y18102D01*
X85075Y17246D01*
Y15754D01*
X85646Y14376D01*
X86701Y13321D01*
X88079Y12750D01*
X89331D01*
X91703Y10378D01*
X92447Y9880D01*
X93325Y9706D01*
X319000D01*
X319878Y9880D01*
X320622Y10378D01*
X340622Y30378D01*
X341119Y31122D01*
X341294Y32000D01*
Y48743D01*
X342564Y49536D01*
X343254Y49250D01*
X344506D01*
X354378Y39378D01*
X355122Y38881D01*
X356000Y38706D01*
X411000D01*
X411878Y38881D01*
X412622Y39378D01*
X420622Y47378D01*
X421119Y48122D01*
X421294Y49000D01*
Y113050D01*
X440950Y132706D01*
X531000D01*
X531878Y132881D01*
X532622Y133378D01*
X586622Y187378D01*
X587119Y188122D01*
X587294Y189000D01*
Y230991D01*
X588179Y231876D01*
X588750Y233254D01*
X590000Y233206D01*
Y0D01*
X0D01*
Y380000D01*
X590000D01*
Y234794D01*
D02*
G37*
G36*
X335821Y75876D02*
X336706Y74991D01*
Y32950D01*
X318050Y14294D01*
X94275D01*
X92575Y15994D01*
Y17246D01*
X92393Y17686D01*
X93241Y18956D01*
X311750D01*
X312628Y19131D01*
X313372Y19628D01*
X332622Y38878D01*
X333120Y39622D01*
X333294Y40500D01*
Y74991D01*
X334179Y75876D01*
X334313Y76198D01*
X335687D01*
X335821Y75876D01*
D02*
G37*
%LPC*%
G36*
X568322Y368140D02*
X568270D01*
Y359370D01*
X577040D01*
Y359421D01*
X576356Y361975D01*
X575034Y364264D01*
X573164Y366134D01*
X570875Y367455D01*
X568322Y368140D01*
D02*
G37*
G36*
X565730D02*
X565678D01*
X563125Y367455D01*
X560835Y366134D01*
X558966Y364264D01*
X557644Y361975D01*
X556960Y359421D01*
Y359370D01*
X565730D01*
Y368140D01*
D02*
G37*
G36*
X520500Y373351D02*
X518662Y373109D01*
X516950Y372399D01*
X515479Y371271D01*
X514351Y369800D01*
X513641Y368088D01*
X513399Y366250D01*
Y357250D01*
X513641Y355412D01*
X514351Y353700D01*
X515479Y352229D01*
X516950Y351101D01*
X518662Y350391D01*
X520500Y350149D01*
X522338Y350391D01*
X524050Y351101D01*
X525521Y352229D01*
X526649Y353700D01*
X527359Y355412D01*
X527601Y357250D01*
Y366250D01*
X527359Y368088D01*
X526649Y369800D01*
X525521Y371271D01*
X524050Y372399D01*
X522338Y373109D01*
X520500Y373351D01*
D02*
G37*
G36*
X454500D02*
X452662Y373109D01*
X450950Y372399D01*
X449479Y371271D01*
X448351Y369800D01*
X447641Y368088D01*
X447399Y366250D01*
Y357250D01*
X447641Y355412D01*
X448351Y353700D01*
X449479Y352229D01*
X450950Y351101D01*
X452662Y350391D01*
X454500Y350149D01*
X456338Y350391D01*
X458050Y351101D01*
X459521Y352229D01*
X460649Y353700D01*
X461359Y355412D01*
X461601Y357250D01*
Y366250D01*
X461359Y368088D01*
X460649Y369800D01*
X459521Y371271D01*
X458050Y372399D01*
X456338Y373109D01*
X454500Y373351D01*
D02*
G37*
G36*
X577040Y356830D02*
X568270D01*
Y348060D01*
X568322D01*
X570875Y348744D01*
X573164Y350066D01*
X575034Y351935D01*
X576356Y354224D01*
X577040Y356778D01*
Y356830D01*
D02*
G37*
G36*
X565730D02*
X556960D01*
Y356778D01*
X557644Y354224D01*
X558966Y351935D01*
X560835Y350066D01*
X563125Y348744D01*
X565678Y348060D01*
X565730D01*
Y356830D01*
D02*
G37*
G36*
X239746Y354750D02*
X238254D01*
X236876Y354179D01*
X235991Y353294D01*
X227000D01*
X226122Y353120D01*
X225378Y352622D01*
X212878Y340122D01*
X212381Y339378D01*
X212206Y338500D01*
Y188500D01*
X212381Y187622D01*
X212878Y186878D01*
X279609Y120147D01*
Y119613D01*
X280180Y118235D01*
X281234Y117180D01*
X282613Y116609D01*
X284105D01*
X285483Y117180D01*
X286538Y118235D01*
X287109Y119613D01*
Y121105D01*
X286538Y122483D01*
X285483Y123538D01*
X284105Y124109D01*
X282613D01*
X282275Y123969D01*
X216794Y189450D01*
Y304209D01*
X218064Y304569D01*
X218266Y304266D01*
X218878Y303857D01*
X219600Y303714D01*
X220177D01*
Y300000D01*
Y218000D01*
X220468Y216537D01*
X221296Y215296D01*
X232296Y204296D01*
X232610Y204087D01*
X232876Y203821D01*
X233224Y203677D01*
X233537Y203468D01*
X233906Y203394D01*
X234254Y203250D01*
X234631D01*
X235000Y203177D01*
X235369Y203250D01*
X235746D01*
X236094Y203394D01*
X236463Y203468D01*
X236776Y203677D01*
X237124Y203821D01*
X237390Y204087D01*
X237704Y204296D01*
X237913Y204610D01*
X238179Y204876D01*
X238323Y205224D01*
X238532Y205537D01*
X238606Y205906D01*
X238750Y206254D01*
Y206631D01*
X238823Y207000D01*
X238750Y207369D01*
Y207746D01*
X238606Y208094D01*
X238532Y208463D01*
X238323Y208776D01*
X238179Y209124D01*
X237913Y209391D01*
X237704Y209704D01*
X227823Y219584D01*
Y300000D01*
Y303529D01*
X228000Y303647D01*
X236000D01*
X236303Y303773D01*
X236600Y303714D01*
X244400D01*
X244741Y303782D01*
X245365Y302645D01*
X245372Y302613D01*
X244881Y301878D01*
X244706Y301000D01*
Y180000D01*
X244881Y179122D01*
X245378Y178378D01*
X303250Y120506D01*
Y119254D01*
X303821Y117876D01*
X304876Y116821D01*
X306254Y116250D01*
X307746D01*
X309124Y116821D01*
X310179Y117876D01*
X310750Y119254D01*
Y120746D01*
X310179Y122124D01*
X309124Y123179D01*
X307746Y123750D01*
X306494D01*
X249294Y180950D01*
Y212666D01*
X250564Y213192D01*
X343250Y120506D01*
Y119254D01*
X343821Y117876D01*
X344876Y116821D01*
X346254Y116250D01*
X347746D01*
X349124Y116821D01*
X350179Y117876D01*
X350750Y119254D01*
Y120746D01*
X350179Y122124D01*
X349124Y123179D01*
X347746Y123750D01*
X346494D01*
X253294Y216950D01*
Y298050D01*
X256950Y301706D01*
X282099D01*
X282977Y301880D01*
X283722Y302378D01*
X303751Y322407D01*
X304722Y321847D01*
X306948Y321250D01*
X309252D01*
X311477Y321847D01*
X313472Y322998D01*
X315101Y324627D01*
X316253Y326623D01*
X316850Y328848D01*
Y331152D01*
X316253Y333378D01*
X315101Y335373D01*
X313472Y337002D01*
X311477Y338154D01*
X309252Y338750D01*
X306948D01*
X304722Y338154D01*
X302727Y337002D01*
X301098Y335373D01*
X299946Y333378D01*
X299350Y331152D01*
Y328848D01*
X299946Y326623D01*
X300507Y325652D01*
X281149Y306294D01*
X257334D01*
X256808Y307564D01*
X274207Y324963D01*
X275576Y324839D01*
X275698Y324627D01*
X277327Y322998D01*
X279322Y321847D01*
X281548Y321250D01*
X283852D01*
X286077Y321847D01*
X288072Y322998D01*
X289701Y324627D01*
X290853Y326623D01*
X291450Y328848D01*
Y331152D01*
X290853Y333378D01*
X289701Y335373D01*
X288072Y337002D01*
X286077Y338154D01*
X283852Y338750D01*
X281548D01*
X279322Y338154D01*
X277327Y337002D01*
X275698Y335373D01*
X274546Y333378D01*
X273950Y331152D01*
Y329807D01*
X273513D01*
X272635Y329632D01*
X271891Y329135D01*
X247389Y304633D01*
X246218Y305259D01*
X246286Y305600D01*
Y309600D01*
X257539Y320853D01*
X257804Y321250D01*
X258452D01*
X260678Y321846D01*
X262673Y322998D01*
X264302Y324627D01*
X265454Y326622D01*
X266050Y328848D01*
Y331152D01*
X265454Y333377D01*
X264302Y335373D01*
X262673Y337002D01*
X260678Y338153D01*
X258452Y338750D01*
X256148D01*
X253923Y338153D01*
X251928Y337002D01*
X250299Y335373D01*
X249147Y333377D01*
X248550Y331152D01*
Y328848D01*
X249147Y326622D01*
X250299Y324627D01*
X251120Y323806D01*
X241600Y314286D01*
X236600D01*
X236304Y314227D01*
X236000Y314353D01*
X228000D01*
X227696Y314227D01*
X227400Y314286D01*
X219600D01*
X218878Y314143D01*
X218266Y313734D01*
X218064Y313431D01*
X216794Y313791D01*
Y337550D01*
X227950Y348706D01*
X235991D01*
X236876Y347821D01*
X238254Y347250D01*
X239746D01*
X241124Y347821D01*
X242179Y348876D01*
X242750Y350254D01*
Y351746D01*
X242179Y353124D01*
X241124Y354179D01*
X239746Y354750D01*
D02*
G37*
G36*
X241940Y340040D02*
X233170D01*
Y331270D01*
X241940D01*
Y340040D01*
D02*
G37*
G36*
X230630D02*
X221860D01*
Y331270D01*
X230630D01*
Y340040D01*
D02*
G37*
G36*
X568152Y341450D02*
X565848D01*
X563622Y340853D01*
X561627Y339701D01*
X559998Y338072D01*
X558846Y336077D01*
X558250Y333852D01*
Y331548D01*
X558846Y329322D01*
X559998Y327327D01*
X561627Y325698D01*
X563622Y324546D01*
X565848Y323950D01*
X568152D01*
X570377Y324546D01*
X572372Y325698D01*
X574002Y327327D01*
X575154Y329322D01*
X575750Y331548D01*
Y333852D01*
X575154Y336077D01*
X574002Y338072D01*
X572372Y339701D01*
X570377Y340853D01*
X568152Y341450D01*
D02*
G37*
G36*
X241940Y328730D02*
X233170D01*
Y319960D01*
X241940D01*
Y328730D01*
D02*
G37*
G36*
X230630D02*
X221860D01*
Y319960D01*
X230630D01*
Y328730D01*
D02*
G37*
G36*
X41727Y332540D02*
X41270D01*
Y316270D01*
X57540D01*
Y316728D01*
X56866Y320116D01*
X55544Y323308D01*
X53624Y326181D01*
X51181Y328624D01*
X48308Y330544D01*
X45116Y331866D01*
X41727Y332540D01*
D02*
G37*
G36*
X38730D02*
X38273D01*
X34884Y331866D01*
X31692Y330544D01*
X28819Y328624D01*
X26376Y326181D01*
X24456Y323308D01*
X23134Y320116D01*
X22460Y316728D01*
Y316270D01*
X38730D01*
Y332540D01*
D02*
G37*
G36*
X387093Y346250D02*
X382907D01*
X378802Y345433D01*
X374934Y343831D01*
X371454Y341506D01*
X368494Y338546D01*
X366169Y335066D01*
X364567Y331198D01*
X363750Y327093D01*
Y322907D01*
X364567Y318802D01*
X366169Y314934D01*
X368494Y311454D01*
X371454Y308494D01*
X374934Y306168D01*
X378802Y304567D01*
X382907Y303750D01*
X387093D01*
X391198Y304567D01*
X395066Y306168D01*
X398546Y308494D01*
X401506Y311454D01*
X403831Y314934D01*
X405433Y318802D01*
X406250Y322907D01*
Y327093D01*
X405433Y331198D01*
X403831Y335066D01*
X401506Y338546D01*
X398546Y341506D01*
X395066Y343831D01*
X391198Y345433D01*
X387093Y346250D01*
D02*
G37*
G36*
X157093D02*
X152907D01*
X148802Y345433D01*
X144934Y343831D01*
X141454Y341506D01*
X138494Y338546D01*
X136168Y335066D01*
X134567Y331198D01*
X133750Y327093D01*
Y322907D01*
X134567Y318802D01*
X136168Y314934D01*
X138494Y311454D01*
X141454Y308494D01*
X144934Y306168D01*
X148802Y304567D01*
X152907Y303750D01*
X157093D01*
X161198Y304567D01*
X165066Y306168D01*
X168546Y308494D01*
X171506Y311454D01*
X173832Y314934D01*
X175433Y318802D01*
X176250Y322907D01*
Y327093D01*
X175433Y331198D01*
X173832Y335066D01*
X171506Y338546D01*
X168546Y341506D01*
X165066Y343831D01*
X161198Y345433D01*
X157093Y346250D01*
D02*
G37*
G36*
X568152Y316050D02*
X565848D01*
X563623Y315454D01*
X561628Y314302D01*
X559998Y312673D01*
X558847Y310678D01*
X558250Y308452D01*
Y306148D01*
X558847Y303923D01*
X559998Y301928D01*
X561628Y300299D01*
X563623Y299147D01*
X565848Y298550D01*
X568152D01*
X570378Y299147D01*
X572373Y300299D01*
X574002Y301928D01*
X575154Y303923D01*
X575750Y306148D01*
Y308452D01*
X575154Y310678D01*
X574002Y312673D01*
X572373Y314302D01*
X570378Y315454D01*
X568152Y316050D01*
D02*
G37*
G36*
X57540Y313730D02*
X41270D01*
Y297460D01*
X41727D01*
X45116Y298134D01*
X48308Y299456D01*
X51181Y301376D01*
X53624Y303819D01*
X55544Y306692D01*
X56866Y309884D01*
X57540Y313272D01*
Y313730D01*
D02*
G37*
G36*
X38730D02*
X22460D01*
Y313272D01*
X23134Y309884D01*
X24456Y306692D01*
X26376Y303819D01*
X28819Y301376D01*
X31692Y299456D01*
X34884Y298134D01*
X38273Y297460D01*
X38730D01*
Y313730D01*
D02*
G37*
G36*
X535746Y272750D02*
X534254D01*
X532876Y272179D01*
X531991Y271294D01*
X503300D01*
X502422Y271119D01*
X501678Y270622D01*
X427350Y196294D01*
X403009D01*
X402124Y197179D01*
X400746Y197750D01*
X399254D01*
X397876Y197179D01*
X396821Y196124D01*
X396250Y194746D01*
Y193254D01*
X396821Y191876D01*
X397876Y190821D01*
X398198Y190687D01*
Y189313D01*
X397876Y189179D01*
X396821Y188124D01*
X396250Y186746D01*
Y185254D01*
X396821Y183876D01*
X397876Y182821D01*
X399254Y182250D01*
X400746D01*
X402124Y182821D01*
X403009Y183706D01*
X442000D01*
X442878Y183881D01*
X443622Y184378D01*
X453558Y194313D01*
X454728Y193688D01*
X454392Y192000D01*
Y175323D01*
X400677Y121608D01*
X368000D01*
X365854Y121181D01*
X364035Y119965D01*
X348677Y104608D01*
X214323D01*
X212965Y105965D01*
X212506Y106272D01*
X212115Y106663D01*
X211605Y106874D01*
X211146Y107181D01*
X210604Y107289D01*
X210094Y107500D01*
X209542D01*
X209000Y107608D01*
X208458Y107500D01*
X207906D01*
X207396Y107289D01*
X206854Y107181D01*
X206395Y106874D01*
X205884Y106663D01*
X205494Y106272D01*
X205035Y105965D01*
X204728Y105506D01*
X204337Y105115D01*
X204126Y104605D01*
X203819Y104146D01*
X203711Y103604D01*
X203500Y103094D01*
Y102542D01*
X203392Y102000D01*
X203500Y101458D01*
Y100906D01*
X203711Y100396D01*
X203819Y99854D01*
X204126Y99395D01*
X204337Y98884D01*
X204728Y98494D01*
X205035Y98035D01*
X208035Y95035D01*
X209854Y93819D01*
X212000Y93392D01*
X351000D01*
X353146Y93819D01*
X354965Y95035D01*
X370323Y110392D01*
X375447D01*
X375695Y109147D01*
X374934Y108832D01*
X371454Y106506D01*
X368494Y103546D01*
X366169Y100066D01*
X364567Y96198D01*
X363750Y92093D01*
Y87907D01*
X364567Y83802D01*
X366169Y79934D01*
X368494Y76454D01*
X371454Y73494D01*
X374934Y71168D01*
X378802Y69567D01*
X382907Y68750D01*
X387093D01*
X391198Y69567D01*
X395066Y71168D01*
X398546Y73494D01*
X401506Y76454D01*
X403831Y79934D01*
X405433Y83802D01*
X406250Y87907D01*
Y92093D01*
X405433Y96198D01*
X403831Y100066D01*
X401506Y103546D01*
X398546Y106506D01*
X395066Y108832D01*
X394305Y109147D01*
X394553Y110392D01*
X403000D01*
X405146Y110819D01*
X406965Y112035D01*
X463965Y169035D01*
X465181Y170854D01*
X465608Y173000D01*
Y189677D01*
X466965Y191035D01*
X467272Y191494D01*
X467663Y191884D01*
X467874Y192395D01*
X468181Y192854D01*
X468289Y193396D01*
X468500Y193906D01*
Y194458D01*
X468608Y195000D01*
X468500Y195542D01*
Y196094D01*
X468289Y196604D01*
X468181Y197146D01*
X467874Y197605D01*
X467663Y198116D01*
X467272Y198506D01*
X466965Y198965D01*
X466506Y199272D01*
X466115Y199663D01*
X465605Y199874D01*
X465146Y200181D01*
X464604Y200289D01*
X464094Y200500D01*
X463542D01*
X463000Y200608D01*
X462458Y200500D01*
X461906D01*
X461396Y200289D01*
X461312Y200272D01*
X460687Y201443D01*
X508950Y249706D01*
X551991D01*
X552876Y248821D01*
X554254Y248250D01*
X555746D01*
X557124Y248821D01*
X558179Y249876D01*
X558750Y251254D01*
Y252746D01*
X558179Y254124D01*
X557124Y255179D01*
X555746Y255750D01*
X554254D01*
X552876Y255179D01*
X551991Y254294D01*
X508000D01*
X507122Y254119D01*
X506378Y253622D01*
X441050Y188294D01*
X403009D01*
X402124Y189179D01*
X401802Y189313D01*
Y190687D01*
X402124Y190821D01*
X403009Y191706D01*
X428300D01*
X429178Y191881D01*
X429922Y192378D01*
X504250Y266706D01*
X531991D01*
X532876Y265821D01*
X534254Y265250D01*
X535746D01*
X537124Y265821D01*
X538179Y266876D01*
X538750Y268254D01*
Y269746D01*
X538179Y271124D01*
X537124Y272179D01*
X535746Y272750D01*
D02*
G37*
G36*
X56270Y281270D02*
X23730D01*
Y248730D01*
X56270D01*
Y281270D01*
D02*
G37*
G36*
X389040Y297462D02*
X256960D01*
X256003Y297066D01*
X255607Y296109D01*
Y242007D01*
X256003Y241050D01*
X256960Y240654D01*
X389040D01*
X389997Y241050D01*
X390393Y242007D01*
Y296109D01*
X389997Y297066D01*
X389040Y297462D01*
D02*
G37*
G36*
X412000Y374823D02*
X411631Y374750D01*
X411254D01*
X410906Y374606D01*
X410537Y374532D01*
X410224Y374323D01*
X409876Y374179D01*
X409609Y373913D01*
X409296Y373704D01*
X409087Y373391D01*
X408821Y373124D01*
X408677Y372776D01*
X408468Y372463D01*
X408394Y372094D01*
X408250Y371746D01*
Y371369D01*
X408176Y371000D01*
X408250Y370631D01*
Y370254D01*
X408394Y369906D01*
X408468Y369537D01*
X408677Y369224D01*
X408821Y368876D01*
X409087Y368610D01*
X409296Y368296D01*
X420177Y357416D01*
Y287000D01*
X420250Y286631D01*
Y286254D01*
X420394Y285906D01*
X420468Y285537D01*
X420677Y285224D01*
X420821Y284876D01*
X421087Y284610D01*
X421296Y284296D01*
X421396Y284197D01*
X421709Y283988D01*
X421876Y283821D01*
X422094Y283731D01*
X422636Y283368D01*
X424100Y283077D01*
X424100Y283077D01*
X558250D01*
Y273150D01*
X563177D01*
Y252001D01*
X563176Y252000D01*
Y238584D01*
X562296Y237704D01*
X561468Y236463D01*
X561176Y235000D01*
Y229202D01*
X560878Y229143D01*
X560266Y228734D01*
X559857Y228122D01*
X559714Y227400D01*
Y227323D01*
X550286D01*
Y227400D01*
X550143Y228122D01*
X549734Y228734D01*
X549122Y229143D01*
X548400Y229286D01*
X541600D01*
X540878Y229143D01*
X540266Y228734D01*
X539857Y228122D01*
X539714Y227400D01*
Y227323D01*
X530286D01*
Y227400D01*
X530143Y228122D01*
X529734Y228734D01*
X529122Y229143D01*
X528400Y229286D01*
X521600D01*
X520878Y229143D01*
X520266Y228734D01*
X519857Y228122D01*
X519714Y227400D01*
Y219600D01*
X519773Y219303D01*
X519647Y219000D01*
Y211000D01*
X519773Y210697D01*
X519714Y210400D01*
Y202600D01*
X519857Y201878D01*
X520266Y201266D01*
X520878Y200857D01*
X521600Y200714D01*
X522706D01*
Y198009D01*
X521821Y197124D01*
X521250Y195746D01*
Y194254D01*
X521821Y192876D01*
X522876Y191821D01*
X524254Y191250D01*
X525746D01*
X527124Y191821D01*
X528179Y192876D01*
X528750Y194254D01*
Y195746D01*
X528179Y197124D01*
X527294Y198009D01*
Y200714D01*
X528400D01*
X529122Y200857D01*
X529734Y201266D01*
X530143Y201878D01*
X530286Y202600D01*
Y210400D01*
X530227Y210696D01*
X530353Y211000D01*
Y219000D01*
X531448Y219676D01*
X538552D01*
X539647Y219000D01*
Y211000D01*
X539773Y210697D01*
X539714Y210400D01*
Y202600D01*
X539857Y201878D01*
X540266Y201266D01*
X540878Y200857D01*
X541600Y200714D01*
X542706D01*
Y198259D01*
X542881Y197381D01*
X543378Y196637D01*
X547527Y192488D01*
Y191236D01*
X548098Y189858D01*
X549153Y188803D01*
X550531Y188232D01*
X552023D01*
X553401Y188803D01*
X554456Y189858D01*
X555027Y191236D01*
Y192728D01*
X554456Y194106D01*
X553401Y195161D01*
X552023Y195732D01*
X550771D01*
X547294Y199209D01*
Y200714D01*
X548400D01*
X549122Y200857D01*
X549734Y201266D01*
X550143Y201878D01*
X550286Y202600D01*
Y210400D01*
X550227Y210697D01*
X550353Y211000D01*
Y219000D01*
X551448Y219676D01*
X558554D01*
X559648Y219000D01*
Y211000D01*
X559773Y210699D01*
X559714Y210400D01*
Y202600D01*
X559857Y201878D01*
X560266Y201266D01*
X560878Y200857D01*
X561600Y200714D01*
X562706D01*
Y200000D01*
X562881Y199122D01*
X563378Y198378D01*
X569378Y192378D01*
X570122Y191881D01*
X571000Y191706D01*
X571991D01*
X572876Y190821D01*
X574254Y190250D01*
X575746D01*
X577124Y190821D01*
X578179Y191876D01*
X578750Y193254D01*
Y194746D01*
X578179Y196124D01*
X577124Y197179D01*
X575746Y197750D01*
X574254D01*
X572876Y197179D01*
X571991Y196294D01*
X571950D01*
X568755Y199489D01*
X569120Y200852D01*
X569159Y200882D01*
X569734Y201266D01*
X570143Y201878D01*
X570286Y202600D01*
Y210400D01*
X570228Y210694D01*
X570354Y211000D01*
Y219000D01*
X570228Y219306D01*
X570286Y219600D01*
Y227400D01*
X570143Y228122D01*
X569734Y228734D01*
X569122Y229143D01*
X568823Y229202D01*
Y233416D01*
X569704Y234296D01*
X570532Y235537D01*
X570823Y237000D01*
Y251999D01*
X570824Y252000D01*
Y273150D01*
X575750D01*
Y290650D01*
X562370D01*
X562000Y290724D01*
X427823D01*
Y359000D01*
X427532Y360463D01*
X426704Y361704D01*
X426703Y361704D01*
X414704Y373704D01*
X414390Y373913D01*
X414124Y374179D01*
X413776Y374323D01*
X413463Y374532D01*
X413094Y374606D01*
X412746Y374750D01*
X412369D01*
X412000Y374823D01*
D02*
G37*
G36*
X103730Y217460D02*
X102379Y217282D01*
X99937Y216270D01*
X97839Y214661D01*
X96230Y212563D01*
X95218Y210121D01*
X95040Y208766D01*
X93770Y208849D01*
Y216270D01*
X76230D01*
Y193730D01*
X93770D01*
Y201151D01*
X95040Y201234D01*
X95218Y199879D01*
X96230Y197437D01*
X97839Y195339D01*
X99937Y193730D01*
X102379Y192718D01*
X103730Y192541D01*
Y205000D01*
Y217460D01*
D02*
G37*
G36*
X106270D02*
Y206270D01*
X115127D01*
Y207500D01*
X114782Y210121D01*
X113770Y212563D01*
X112161Y214661D01*
X110063Y216270D01*
X107621Y217282D01*
X106270Y217460D01*
D02*
G37*
G36*
X115127Y203730D02*
X106270D01*
Y192541D01*
X107621Y192718D01*
X110063Y193730D01*
X112161Y195339D01*
X113770Y197437D01*
X114782Y199879D01*
X115127Y202500D01*
Y203730D01*
D02*
G37*
G36*
X501421Y175790D02*
X501270D01*
Y166270D01*
X510790D01*
Y166420D01*
X510055Y169165D01*
X508634Y171625D01*
X506625Y173634D01*
X504165Y175055D01*
X501421Y175790D01*
D02*
G37*
G36*
X498730D02*
X498579D01*
X495835Y175055D01*
X493375Y173634D01*
X491366Y171625D01*
X489945Y169165D01*
X489210Y166420D01*
Y166270D01*
X498730D01*
Y175790D01*
D02*
G37*
G36*
X130000Y171294D02*
X42424D01*
X41546Y171119D01*
X40802Y170622D01*
X35646Y165467D01*
X34937Y165513D01*
X32766Y167179D01*
X30237Y168227D01*
X27524Y168584D01*
X24476D01*
X21763Y168227D01*
X19234Y167179D01*
X17063Y165513D01*
X15397Y163342D01*
X14349Y160813D01*
X13992Y158100D01*
X14349Y155387D01*
X15397Y152858D01*
X17063Y150687D01*
X19234Y149021D01*
X21763Y147973D01*
X24476Y147616D01*
X27524D01*
X30237Y147973D01*
X32766Y149021D01*
X34937Y150687D01*
X36603Y152858D01*
X37650Y155387D01*
X38008Y158100D01*
X37650Y160813D01*
X37601Y160933D01*
X43374Y166706D01*
X129050D01*
X140250Y155506D01*
Y154254D01*
X140821Y152876D01*
X141876Y151821D01*
X143254Y151250D01*
X144746D01*
X146124Y151821D01*
X147179Y152876D01*
X147750Y154254D01*
Y155746D01*
X147179Y157124D01*
X146124Y158179D01*
X144746Y158750D01*
X143494D01*
X131622Y170622D01*
X130878Y171119D01*
X130000Y171294D01*
D02*
G37*
G36*
X27524Y193984D02*
X24476D01*
X21763Y193626D01*
X19234Y192579D01*
X17063Y190913D01*
X15397Y188742D01*
X14349Y186213D01*
X13992Y183500D01*
X14349Y180787D01*
X15397Y178258D01*
X17063Y176087D01*
X19234Y174421D01*
X21763Y173374D01*
X24476Y173016D01*
X27524D01*
X30237Y173374D01*
X32766Y174421D01*
X34937Y176087D01*
X36603Y178258D01*
X37650Y180787D01*
X37706Y181206D01*
X124550D01*
X141378Y164378D01*
X142122Y163881D01*
X143000Y163706D01*
X154991D01*
X155876Y162821D01*
X157254Y162250D01*
X158746D01*
X160124Y162821D01*
X161179Y163876D01*
X161750Y165254D01*
Y166746D01*
X161179Y168124D01*
X160124Y169179D01*
X158746Y169750D01*
X157254D01*
X155876Y169179D01*
X154991Y168294D01*
X143950D01*
X127122Y185122D01*
X126378Y185620D01*
X125500Y185794D01*
X37706D01*
X37650Y186213D01*
X36603Y188742D01*
X34937Y190913D01*
X32766Y192579D01*
X30237Y193626D01*
X27524Y193984D01*
D02*
G37*
G36*
X526251Y174500D02*
X523749D01*
X521333Y173853D01*
X519167Y172602D01*
X517398Y170833D01*
X516147Y168667D01*
X515500Y166251D01*
Y163749D01*
X516147Y161333D01*
X517398Y159167D01*
X519167Y157398D01*
X521333Y156147D01*
X523749Y155500D01*
X526251D01*
X528667Y156147D01*
X530833Y157398D01*
X532602Y159167D01*
X533853Y161333D01*
X534500Y163749D01*
Y166251D01*
X533853Y168667D01*
X532602Y170833D01*
X530833Y172602D01*
X528667Y173853D01*
X526251Y174500D01*
D02*
G37*
G36*
X476251D02*
X473749D01*
X471333Y173853D01*
X469167Y172602D01*
X467398Y170833D01*
X466147Y168667D01*
X465500Y166251D01*
Y163749D01*
X466147Y161333D01*
X467398Y159167D01*
X469167Y157398D01*
X471333Y156147D01*
X473749Y155500D01*
X476251D01*
X478667Y156147D01*
X480833Y157398D01*
X482602Y159167D01*
X483853Y161333D01*
X484500Y163749D01*
Y166251D01*
X483853Y168667D01*
X482602Y170833D01*
X480833Y172602D01*
X478667Y173853D01*
X476251Y174500D01*
D02*
G37*
G36*
X510790Y163730D02*
X501270D01*
Y154210D01*
X501421D01*
X504165Y154945D01*
X506625Y156366D01*
X508634Y158375D01*
X510055Y160835D01*
X510790Y163580D01*
Y163730D01*
D02*
G37*
G36*
X498730D02*
X489210D01*
Y163580D01*
X489945Y160835D01*
X491366Y158375D01*
X493375Y156366D01*
X495835Y154945D01*
X498579Y154210D01*
X498730D01*
Y163730D01*
D02*
G37*
G36*
X103730Y157459D02*
X102379Y157282D01*
X99937Y156270D01*
X97839Y154661D01*
X96230Y152563D01*
X95218Y150121D01*
X95040Y148765D01*
X93770Y148849D01*
Y156270D01*
X76230D01*
Y133730D01*
X93770D01*
Y141151D01*
X95040Y141235D01*
X95218Y139879D01*
X96230Y137437D01*
X97839Y135339D01*
X99937Y133730D01*
X102379Y132718D01*
X103730Y132541D01*
Y145000D01*
Y157459D01*
D02*
G37*
G36*
X106270Y157459D02*
Y146270D01*
X115127D01*
Y147500D01*
X114782Y150121D01*
X113770Y152563D01*
X112161Y154661D01*
X110063Y156270D01*
X107621Y157282D01*
X106270Y157459D01*
D02*
G37*
G36*
X115127Y143730D02*
X106270D01*
Y132541D01*
X107621Y132718D01*
X110063Y133730D01*
X112161Y135339D01*
X113770Y137437D01*
X114782Y139879D01*
X115127Y142500D01*
Y143730D01*
D02*
G37*
G36*
X27270Y143460D02*
X24730D01*
X21945Y143093D01*
X19350Y142018D01*
X17121Y140309D01*
X15411Y138080D01*
X14337Y135485D01*
X13970Y132700D01*
X14337Y129915D01*
X15411Y127320D01*
X17121Y125091D01*
X19350Y123382D01*
X21945Y122307D01*
X24730Y121940D01*
X27270D01*
X30055Y122307D01*
X32650Y123382D01*
X34878Y125091D01*
X36588Y127320D01*
X37663Y129915D01*
X38030Y132700D01*
X37663Y135485D01*
X36588Y138080D01*
X34878Y140309D01*
X32650Y142018D01*
X30055Y143093D01*
X27270Y143460D01*
D02*
G37*
G36*
X27524Y119085D02*
X27270D01*
Y108570D01*
X39142D01*
X38907Y110350D01*
X37730Y113192D01*
X35857Y115633D01*
X33416Y117506D01*
X30574Y118683D01*
X27524Y119085D01*
D02*
G37*
G36*
X24730D02*
X24476D01*
X21426Y118683D01*
X18584Y117506D01*
X16143Y115633D01*
X14270Y113192D01*
X13093Y110350D01*
X12858Y108570D01*
X24730D01*
Y119085D01*
D02*
G37*
G36*
X231746Y164750D02*
X230254D01*
X228876Y164179D01*
X227821Y163124D01*
X227250Y161746D01*
Y160254D01*
X227821Y158876D01*
X228876Y157821D01*
X230254Y157250D01*
X231506D01*
X237706Y151050D01*
Y123000D01*
X237881Y122122D01*
X238378Y121378D01*
X252378Y107378D01*
X253122Y106881D01*
X254000Y106706D01*
X316000D01*
X316878Y106881D01*
X317622Y107378D01*
X324622Y114378D01*
X325119Y115122D01*
X325294Y116000D01*
Y116991D01*
X326179Y117876D01*
X326750Y119254D01*
Y120746D01*
X326179Y122124D01*
X325124Y123179D01*
X323746Y123750D01*
X322254D01*
X320876Y123179D01*
X319821Y122124D01*
X319250Y120746D01*
Y119254D01*
X319821Y117876D01*
X320706Y116991D01*
Y116950D01*
X315050Y111294D01*
X254950D01*
X242294Y123950D01*
Y152000D01*
X242120Y152878D01*
X241622Y153622D01*
X234750Y160494D01*
Y161746D01*
X234179Y163124D01*
X233124Y164179D01*
X231746Y164750D01*
D02*
G37*
G36*
X95814Y118747D02*
X74186D01*
X72359Y118506D01*
X70656Y117801D01*
X69194Y116679D01*
X42076Y89560D01*
X34648D01*
X32776Y90997D01*
X30243Y92046D01*
X27524Y92404D01*
X24476D01*
X21757Y92046D01*
X19224Y90997D01*
X17049Y89327D01*
X15379Y87152D01*
X14330Y84619D01*
X13972Y81900D01*
X14330Y79181D01*
X15379Y76648D01*
X17049Y74473D01*
X19224Y72803D01*
X21757Y71754D01*
X24476Y71396D01*
X27524D01*
X30243Y71754D01*
X32776Y72803D01*
X34951Y74473D01*
X35693Y75440D01*
X45000D01*
X46827Y75680D01*
X48530Y76385D01*
X49992Y77508D01*
X77111Y104626D01*
X92889D01*
X95008Y102508D01*
X96470Y101385D01*
X98173Y100680D01*
X100000Y100440D01*
X101827Y100680D01*
X103530Y101385D01*
X104992Y102508D01*
X106115Y103970D01*
X106820Y105673D01*
X107060Y107500D01*
X106820Y109327D01*
X106115Y111030D01*
X104992Y112493D01*
X100806Y116679D01*
X99344Y117801D01*
X97641Y118506D01*
X95814Y118747D01*
D02*
G37*
G36*
X39142Y106030D02*
X27270D01*
Y95515D01*
X27524D01*
X30574Y95917D01*
X33416Y97094D01*
X35857Y98967D01*
X37730Y101408D01*
X38907Y104250D01*
X39142Y106030D01*
D02*
G37*
G36*
X24730D02*
X12858D01*
X13093Y104250D01*
X14270Y101408D01*
X16143Y98967D01*
X18584Y97094D01*
X21426Y95917D01*
X24476Y95515D01*
X24730D01*
Y106030D01*
D02*
G37*
G36*
X558270Y122500D02*
Y91270D01*
X574625D01*
Y105000D01*
X574286Y108438D01*
X573283Y111745D01*
X571655Y114792D01*
X569463Y117463D01*
X566792Y119655D01*
X563745Y121283D01*
X560438Y122286D01*
X558270Y122500D01*
D02*
G37*
G36*
X555730Y122500D02*
X553562Y122286D01*
X550255Y121283D01*
X547208Y119655D01*
X544537Y117463D01*
X542345Y114792D01*
X540717Y111745D01*
X539714Y108438D01*
X539375Y105000D01*
Y91270D01*
X555730D01*
Y122500D01*
D02*
G37*
G36*
X444270D02*
Y91270D01*
X460625D01*
Y105000D01*
X460286Y108438D01*
X459283Y111745D01*
X457654Y114792D01*
X455463Y117463D01*
X452792Y119655D01*
X449745Y121283D01*
X446438Y122286D01*
X444270Y122500D01*
D02*
G37*
G36*
X441730Y122500D02*
X439562Y122286D01*
X436255Y121283D01*
X433208Y119655D01*
X430537Y117463D01*
X428345Y114792D01*
X426717Y111745D01*
X425714Y108438D01*
X425375Y105000D01*
Y91270D01*
X441730D01*
Y122500D01*
D02*
G37*
G36*
X157093Y111250D02*
X152907D01*
X148802Y110433D01*
X144934Y108832D01*
X141454Y106506D01*
X138494Y103546D01*
X136168Y100066D01*
X134567Y96198D01*
X133750Y92093D01*
Y87907D01*
X134567Y83802D01*
X136168Y79934D01*
X138494Y76454D01*
X141454Y73494D01*
X144934Y71168D01*
X148802Y69567D01*
X152907Y68750D01*
X157093D01*
X161198Y69567D01*
X165066Y71168D01*
X168546Y73494D01*
X171506Y76454D01*
X173832Y79934D01*
X175433Y83802D01*
X176250Y87907D01*
Y92093D01*
X175433Y96198D01*
X173832Y100066D01*
X171506Y103546D01*
X168546Y106506D01*
X165066Y108832D01*
X161198Y110433D01*
X157093Y111250D01*
D02*
G37*
G36*
X574625Y88730D02*
X558270D01*
Y57500D01*
X560438Y57714D01*
X563745Y58717D01*
X566792Y60346D01*
X569463Y62537D01*
X571655Y65208D01*
X573283Y68255D01*
X574286Y71562D01*
X574625Y75000D01*
Y88730D01*
D02*
G37*
G36*
X441730Y88730D02*
X425375D01*
Y75000D01*
X425714Y71562D01*
X426717Y68255D01*
X428345Y65208D01*
X430537Y62537D01*
X433208Y60346D01*
X436255Y58717D01*
X439562Y57714D01*
X441730Y57500D01*
Y88730D01*
D02*
G37*
G36*
X460625D02*
X444270D01*
Y57500D01*
X446438Y57714D01*
X449745Y58717D01*
X452792Y60346D01*
X455463Y62537D01*
X457654Y65208D01*
X459283Y68255D01*
X460286Y71562D01*
X460625Y75000D01*
Y88730D01*
D02*
G37*
G36*
X555730Y88730D02*
X539375D01*
Y75000D01*
X539714Y71562D01*
X540717Y68255D01*
X542345Y65208D01*
X544537Y62537D01*
X547208Y60346D01*
X550255Y58717D01*
X553562Y57714D01*
X555730Y57500D01*
Y88730D01*
D02*
G37*
G36*
X37938Y66914D02*
X14062D01*
Y46086D01*
X37938D01*
Y66914D01*
D02*
G37*
G36*
X535790Y30790D02*
X526270D01*
Y21270D01*
X535790D01*
Y30790D01*
D02*
G37*
G36*
X523730D02*
X514210D01*
Y21270D01*
X523730D01*
Y30790D01*
D02*
G37*
G36*
X476251Y29500D02*
X473749D01*
X471333Y28853D01*
X469167Y27602D01*
X467398Y25833D01*
X466147Y23667D01*
X465500Y21251D01*
Y18749D01*
X466147Y16333D01*
X467398Y14167D01*
X469167Y12398D01*
X471333Y11147D01*
X473749Y10500D01*
X476251D01*
X478667Y11147D01*
X480833Y12398D01*
X482602Y14167D01*
X483853Y16333D01*
X484500Y18749D01*
Y21251D01*
X483853Y23667D01*
X482602Y25833D01*
X480833Y27602D01*
X478667Y28853D01*
X476251Y29500D01*
D02*
G37*
G36*
X535790Y18730D02*
X526270D01*
Y9210D01*
X535790D01*
Y18730D01*
D02*
G37*
G36*
X523730D02*
X514210D01*
Y9210D01*
X523730D01*
Y18730D01*
D02*
G37*
%LPD*%
D11*
X503300Y269000D02*
X535000D01*
X428300Y194000D02*
X503300Y269000D01*
X442000Y186000D02*
X508000Y252000D01*
X555000D01*
X214500Y188500D02*
X282641Y120359D01*
X283359D01*
X344000Y53000D02*
X356000Y41000D01*
X411000D01*
X419000Y49000D02*
Y114000D01*
X411000Y41000D02*
X419000Y49000D01*
Y114000D02*
X440000Y135000D01*
X531000D01*
X585000Y189000D01*
Y234000D01*
X331000Y40500D02*
Y78000D01*
X563482Y307300D02*
X567000D01*
X400000Y186000D02*
X442000D01*
X400000Y194000D02*
X428300D01*
X227000Y351000D02*
X239000D01*
X214500Y338500D02*
X227000Y351000D01*
X214500Y188500D02*
Y338500D01*
X247000Y180000D02*
Y301000D01*
X273513Y327513D02*
X280212D01*
X247000Y301000D02*
X273513Y327513D01*
X256000Y304000D02*
X282099D01*
X251000Y299000D02*
X256000Y304000D01*
X251000Y216000D02*
Y299000D01*
X247000Y180000D02*
X307000Y120000D01*
X280212Y327513D02*
X282700Y330000D01*
X251000Y216000D02*
X347000Y120000D01*
X282099Y304000D02*
X308100Y330000D01*
X323000Y116000D02*
Y120000D01*
X316000Y109000D02*
X323000Y116000D01*
X200000Y85000D02*
X359000D01*
X173000Y58000D02*
X200000Y85000D01*
X311750Y21250D02*
X331000Y40500D01*
X339000Y32000D02*
Y78000D01*
X254000Y109000D02*
X316000D01*
X240000Y123000D02*
X254000Y109000D01*
X240000Y123000D02*
Y152000D01*
X231000Y161000D02*
X240000Y152000D01*
X82000Y20000D02*
X82000D01*
X83250Y21250D02*
X311750D01*
X76500Y18500D02*
X80500D01*
X82000Y20000D01*
X82000D02*
X83250Y21250D01*
X76000Y18000D02*
X76500Y18500D01*
X88825Y16500D02*
X93325Y12000D01*
X319000D02*
X339000Y32000D01*
X93325Y12000D02*
X319000D01*
X571000Y194000D02*
X575000D01*
X565000Y200000D02*
Y206500D01*
Y200000D02*
X571000Y194000D01*
X545000Y198259D02*
X551277Y191982D01*
X545000Y198259D02*
Y206500D01*
X525000Y195000D02*
Y206500D01*
X524500Y206000D02*
X525000Y206500D01*
X143000Y166000D02*
X158000D01*
X125500Y183500D02*
X143000Y166000D01*
X30000Y183500D02*
X125500D01*
X130000Y169000D02*
X144000Y155000D01*
X30000Y158100D02*
X31524D01*
X42424Y169000D01*
X130000D01*
D24*
X525000Y206500D02*
D03*
Y223500D02*
D03*
X565000Y206500D02*
D03*
Y223500D02*
D03*
X545000D02*
D03*
Y206500D02*
D03*
D29*
X240500Y309000D02*
D03*
X223500D02*
D03*
D81*
X95814Y111686D02*
X100000Y107500D01*
X74186Y111686D02*
X95814D01*
X30000Y81900D02*
X30600Y82500D01*
X45000D01*
X74186Y111686D01*
D82*
X562000Y286900D02*
X567000Y281900D01*
X424100Y286900D02*
X562000D01*
X424000Y287000D02*
X424100Y286900D01*
X424000Y287000D02*
Y359000D01*
X412000Y371000D02*
X424000Y359000D01*
X403000Y116000D02*
X460000Y173000D01*
Y192000D02*
X463000Y195000D01*
X368000Y116000D02*
X403000D01*
X460000Y173000D02*
Y192000D01*
X212000Y99000D02*
X351000D01*
X368000Y116000D01*
X209000Y102000D02*
X212000Y99000D01*
X224000Y218000D02*
Y300000D01*
Y218000D02*
X235000Y207000D01*
X223500Y309000D02*
X224000Y308500D01*
Y300000D02*
Y308500D01*
X565000Y235000D02*
X567000Y237000D01*
X565000Y223500D02*
Y235000D01*
X567000Y237000D02*
Y252000D01*
X567000Y252000D02*
Y281900D01*
X567000Y252000D02*
X567000Y252000D01*
X545000Y223500D02*
X565000D01*
X525000D02*
X545000D01*
D85*
X240500Y309000D02*
X241000D01*
X255196Y323196D01*
Y327895D01*
X257300Y330000D01*
D87*
X85000Y145000D02*
D03*
Y205000D02*
D03*
D88*
X105000Y145000D02*
D03*
Y205000D02*
D03*
D89*
X567000Y358100D02*
D03*
Y332700D02*
D03*
X567000Y307300D02*
D03*
X257300Y330000D02*
D03*
X282700Y330000D02*
D03*
X308100D02*
D03*
D90*
X567000Y281900D02*
D03*
D91*
X26000Y132700D02*
D03*
D92*
Y107300D02*
D03*
Y81900D02*
D03*
Y158100D02*
D03*
Y183500D02*
D03*
D93*
Y56500D02*
D03*
D94*
X231900Y330000D02*
D03*
D95*
X155000Y325000D02*
D03*
X385000D02*
D03*
X155000Y90000D02*
D03*
X385000D02*
D03*
D96*
X520500Y361750D02*
D03*
X454500D02*
D03*
X570000Y320000D02*
D03*
X585000Y170000D02*
D03*
X570000Y140000D02*
D03*
X585000Y110000D02*
D03*
Y50000D02*
D03*
X570000Y20000D02*
D03*
X555000Y350000D02*
D03*
X540000Y320000D02*
D03*
Y260000D02*
D03*
X555000Y50000D02*
D03*
X540000Y20000D02*
D03*
X510000Y320000D02*
D03*
Y200000D02*
D03*
Y140000D02*
D03*
X525000Y110000D02*
D03*
X510000Y80000D02*
D03*
X525000Y50000D02*
D03*
X510000Y20000D02*
D03*
X480000Y320000D02*
D03*
Y260000D02*
D03*
Y140000D02*
D03*
Y80000D02*
D03*
X495000Y50000D02*
D03*
X450000Y320000D02*
D03*
Y140000D02*
D03*
X465000Y110000D02*
D03*
Y50000D02*
D03*
X450000Y20000D02*
D03*
X435000Y350000D02*
D03*
X420000Y260000D02*
D03*
Y200000D02*
D03*
X435000Y170000D02*
D03*
Y50000D02*
D03*
X420000Y20000D02*
D03*
X405000Y350000D02*
D03*
Y290000D02*
D03*
Y230000D02*
D03*
X390000Y200000D02*
D03*
X405000Y50000D02*
D03*
X390000Y20000D02*
D03*
X375000Y350000D02*
D03*
X360000Y320000D02*
D03*
Y200000D02*
D03*
X375000Y50000D02*
D03*
X345000Y350000D02*
D03*
X330000Y320000D02*
D03*
X315000Y350000D02*
D03*
X300000Y80000D02*
D03*
X315000Y50000D02*
D03*
X285000Y350000D02*
D03*
Y170000D02*
D03*
X270000Y80000D02*
D03*
X285000Y50000D02*
D03*
X255000Y350000D02*
D03*
X240000Y260000D02*
D03*
Y200000D02*
D03*
Y80000D02*
D03*
X255000Y50000D02*
D03*
X210000Y140000D02*
D03*
X225000Y110000D02*
D03*
X210000Y80000D02*
D03*
X225000Y50000D02*
D03*
X195000Y350000D02*
D03*
X180000Y320000D02*
D03*
Y260000D02*
D03*
Y200000D02*
D03*
Y80000D02*
D03*
X195000Y50000D02*
D03*
X165000Y350000D02*
D03*
Y230000D02*
D03*
X150000Y200000D02*
D03*
X165000Y170000D02*
D03*
Y50000D02*
D03*
X135000Y350000D02*
D03*
Y230000D02*
D03*
X120000Y200000D02*
D03*
Y140000D02*
D03*
X135000Y50000D02*
D03*
X105000Y230000D02*
D03*
X60000Y320000D02*
D03*
Y80000D02*
D03*
Y20000D02*
D03*
X45000Y290000D02*
D03*
Y230000D02*
D03*
Y110000D02*
D03*
Y50000D02*
D03*
X114000Y98000D02*
D03*
Y104000D02*
D03*
X535000Y269000D02*
D03*
X555000Y252000D02*
D03*
X424000Y287000D02*
D03*
X412000Y371000D02*
D03*
X136909Y246014D02*
D03*
X283359Y120359D02*
D03*
X344000Y53000D02*
D03*
X585000Y234000D02*
D03*
X331000Y78000D02*
D03*
X463000Y195000D02*
D03*
X209000Y102000D02*
D03*
X235000Y207000D02*
D03*
X224000Y300000D02*
D03*
X239000Y351000D02*
D03*
X323000Y120000D02*
D03*
X307000D02*
D03*
X347000D02*
D03*
X359000Y85000D02*
D03*
X339000Y78000D02*
D03*
X400000Y194000D02*
D03*
X502000Y235000D02*
D03*
X400000Y186000D02*
D03*
X231000Y161000D02*
D03*
X173000Y58000D02*
D03*
X88825Y16500D02*
D03*
X76000Y18000D02*
D03*
X575000Y194000D02*
D03*
X551277Y191982D02*
D03*
X525000Y195000D02*
D03*
X158000Y166000D02*
D03*
X144000Y155000D02*
D03*
X100000Y107500D02*
D03*
D97*
X520500Y361750D02*
D03*
X454500D02*
D03*
D98*
X525000Y20000D02*
D03*
D99*
X475000D02*
D03*
X525000Y165000D02*
D03*
X500000D02*
D03*
X475000D02*
D03*
D100*
X557000Y90000D02*
D03*
X443000D02*
D03*
D101*
X40000Y265000D02*
D03*
D102*
Y315000D02*
D03*
D103*
X120000Y65000D02*
D03*
Y55000D02*
D03*
X70000D02*
D03*
Y65000D02*
D03*
X90000D02*
D03*
X100000D02*
D03*
X110000D02*
D03*
Y55000D02*
D03*
X100000D02*
D03*
X90000D02*
D03*
X80000D02*
D03*
Y65000D02*
D03*
M02*
