G04*
G04 #@! TF.GenerationSoftware,Altium Limited,Altium Designer,23.4.1 (23)*
G04*
G04 Layer_Color=8388736*
%FSLAX44Y44*%
%MOMM*%
G71*
G04*
G04 #@! TF.SameCoordinates,9FFFCCE3-57C6-44D0-9ABF-11A32D4D8937*
G04*
G04*
G04 #@! TF.FilePolarity,Negative*
G04*
G01*
G75*
%ADD22R,0.4064X0.8128*%
%ADD23R,0.8128X0.4064*%
%ADD38R,0.9906X0.7112*%
%ADD40R,0.5334X1.9812*%
%ADD41R,1.0000X1.0000*%
%ADD42R,1.6510X1.6510*%
%ADD43R,0.9144X0.9144*%
%ADD44R,1.1032X1.2032*%
%ADD45R,1.2032X1.1032*%
G04:AMPARAMS|DCode=46|XSize=1.1032mm|YSize=1.0032mm|CornerRadius=0.1616mm|HoleSize=0mm|Usage=FLASHONLY|Rotation=90.000|XOffset=0mm|YOffset=0mm|HoleType=Round|Shape=RoundedRectangle|*
%AMROUNDEDRECTD46*
21,1,1.1032,0.6800,0,0,90.0*
21,1,0.7800,1.0032,0,0,90.0*
1,1,0.3232,0.3400,0.3900*
1,1,0.3232,0.3400,-0.3900*
1,1,0.3232,-0.3400,-0.3900*
1,1,0.3232,-0.3400,0.3900*
%
%ADD46ROUNDEDRECTD46*%
G04:AMPARAMS|DCode=47|XSize=1.5432mm|YSize=2.0032mm|CornerRadius=0.1686mm|HoleSize=0mm|Usage=FLASHONLY|Rotation=90.000|XOffset=0mm|YOffset=0mm|HoleType=Round|Shape=RoundedRectangle|*
%AMROUNDEDRECTD47*
21,1,1.5432,1.6660,0,0,90.0*
21,1,1.2060,2.0032,0,0,90.0*
1,1,0.3372,0.8330,0.6030*
1,1,0.3372,0.8330,-0.6030*
1,1,0.3372,-0.8330,-0.6030*
1,1,0.3372,-0.8330,0.6030*
%
%ADD47ROUNDEDRECTD47*%
G04:AMPARAMS|DCode=48|XSize=1.7032mm|YSize=2.2032mm|CornerRadius=0.2891mm|HoleSize=0mm|Usage=FLASHONLY|Rotation=0.000|XOffset=0mm|YOffset=0mm|HoleType=Round|Shape=RoundedRectangle|*
%AMROUNDEDRECTD48*
21,1,1.7032,1.6250,0,0,0.0*
21,1,1.1250,2.2032,0,0,0.0*
1,1,0.5782,0.5625,-0.8125*
1,1,0.5782,-0.5625,-0.8125*
1,1,0.5782,-0.5625,0.8125*
1,1,0.5782,0.5625,0.8125*
%
%ADD48ROUNDEDRECTD48*%
G04:AMPARAMS|DCode=49|XSize=4.0032mm|YSize=2.2032mm|CornerRadius=0.1516mm|HoleSize=0mm|Usage=FLASHONLY|Rotation=0.000|XOffset=0mm|YOffset=0mm|HoleType=Round|Shape=RoundedRectangle|*
%AMROUNDEDRECTD49*
21,1,4.0032,1.9000,0,0,0.0*
21,1,3.7000,2.2032,0,0,0.0*
1,1,0.3032,1.8500,-0.9500*
1,1,0.3032,-1.8500,-0.9500*
1,1,0.3032,-1.8500,0.9500*
1,1,0.3032,1.8500,0.9500*
%
%ADD49ROUNDEDRECTD49*%
G04:AMPARAMS|DCode=50|XSize=1.0032mm|YSize=1.1032mm|CornerRadius=0.1616mm|HoleSize=0mm|Usage=FLASHONLY|Rotation=90.000|XOffset=0mm|YOffset=0mm|HoleType=Round|Shape=RoundedRectangle|*
%AMROUNDEDRECTD50*
21,1,1.0032,0.7800,0,0,90.0*
21,1,0.6800,1.1032,0,0,90.0*
1,1,0.3232,0.3900,0.3400*
1,1,0.3232,0.3900,-0.3400*
1,1,0.3232,-0.3900,-0.3400*
1,1,0.3232,-0.3900,0.3400*
%
%ADD50ROUNDEDRECTD50*%
G04:AMPARAMS|DCode=51|XSize=1.1032mm|YSize=1.0032mm|CornerRadius=0.1616mm|HoleSize=0mm|Usage=FLASHONLY|Rotation=0.000|XOffset=0mm|YOffset=0mm|HoleType=Round|Shape=RoundedRectangle|*
%AMROUNDEDRECTD51*
21,1,1.1032,0.6800,0,0,0.0*
21,1,0.7800,1.0032,0,0,0.0*
1,1,0.3232,0.3900,-0.3400*
1,1,0.3232,-0.3900,-0.3400*
1,1,0.3232,-0.3900,0.3400*
1,1,0.3232,0.3900,0.3400*
%
%ADD51ROUNDEDRECTD51*%
G04:AMPARAMS|DCode=52|XSize=1.1532mm|YSize=1.6032mm|CornerRadius=0.1729mm|HoleSize=0mm|Usage=FLASHONLY|Rotation=270.000|XOffset=0mm|YOffset=0mm|HoleType=Round|Shape=RoundedRectangle|*
%AMROUNDEDRECTD52*
21,1,1.1532,1.2575,0,0,270.0*
21,1,0.8075,1.6032,0,0,270.0*
1,1,0.3457,-0.6288,-0.4037*
1,1,0.3457,-0.6288,0.4037*
1,1,0.3457,0.6288,0.4037*
1,1,0.3457,0.6288,-0.4037*
%
%ADD52ROUNDEDRECTD52*%
G04:AMPARAMS|DCode=53|XSize=0.8032mm|YSize=1.2532mm|CornerRadius=0.1466mm|HoleSize=0mm|Usage=FLASHONLY|Rotation=270.000|XOffset=0mm|YOffset=0mm|HoleType=Round|Shape=RoundedRectangle|*
%AMROUNDEDRECTD53*
21,1,0.8032,0.9600,0,0,270.0*
21,1,0.5100,1.2532,0,0,270.0*
1,1,0.2932,-0.4800,-0.2550*
1,1,0.2932,-0.4800,0.2550*
1,1,0.2932,0.4800,0.2550*
1,1,0.2932,0.4800,-0.2550*
%
%ADD53ROUNDEDRECTD53*%
%ADD54R,1.1032X1.1532*%
%ADD55R,1.1532X1.1032*%
G04:AMPARAMS|DCode=56|XSize=1.0032mm|YSize=1.1032mm|CornerRadius=0.1616mm|HoleSize=0mm|Usage=FLASHONLY|Rotation=180.000|XOffset=0mm|YOffset=0mm|HoleType=Round|Shape=RoundedRectangle|*
%AMROUNDEDRECTD56*
21,1,1.0032,0.7800,0,0,180.0*
21,1,0.6800,1.1032,0,0,180.0*
1,1,0.3232,-0.3400,0.3900*
1,1,0.3232,0.3400,0.3900*
1,1,0.3232,0.3400,-0.3900*
1,1,0.3232,-0.3400,-0.3900*
%
%ADD56ROUNDEDRECTD56*%
%ADD57R,0.6032X1.5532*%
%ADD58R,1.8032X1.6032*%
%ADD59R,2.1032X2.1032*%
G04:AMPARAMS|DCode=60|XSize=0.7366mm|YSize=2.1844mm|CornerRadius=0.1683mm|HoleSize=0mm|Usage=FLASHONLY|Rotation=180.000|XOffset=0mm|YOffset=0mm|HoleType=Round|Shape=RoundedRectangle|*
%AMROUNDEDRECTD60*
21,1,0.7366,1.8479,0,0,180.0*
21,1,0.4001,2.1844,0,0,180.0*
1,1,0.3366,-0.2000,0.9239*
1,1,0.3366,0.2000,0.9239*
1,1,0.3366,0.2000,-0.9239*
1,1,0.3366,-0.2000,-0.9239*
%
%ADD60ROUNDEDRECTD60*%
%ADD61R,3.2004X2.3876*%
%ADD62R,1.7032X2.2032*%
%ADD63O,1.7032X2.2032*%
%ADD64C,1.7032*%
%ADD65R,1.7032X1.7032*%
%ADD66O,2.3368X2.0828*%
%ADD67O,2.3368X2.0320*%
%ADD68R,2.3368X2.0320*%
%ADD69R,1.7032X1.7032*%
%ADD70C,4.2032*%
%ADD71C,0.7032*%
%ADD72O,1.1032X2.0032*%
%ADD73R,1.8532X1.8532*%
%ADD74C,1.8532*%
%ADD75O,3.2032X6.2032*%
%ADD76R,3.2032X3.2032*%
%ADD77C,3.2032*%
%ADD78C,1.0032*%
D22*
X275000Y235000D02*
D03*
X283000D02*
D03*
X291000D02*
D03*
X299000D02*
D03*
X307000D02*
D03*
X315000D02*
D03*
X323000D02*
D03*
X331000D02*
D03*
X339000D02*
D03*
X347000D02*
D03*
X355000D02*
D03*
X363000D02*
D03*
X371000D02*
D03*
X371000Y137000D02*
D03*
X363000D02*
D03*
X355000D02*
D03*
X347000D02*
D03*
X339000D02*
D03*
X331000D02*
D03*
X323000D02*
D03*
X315000D02*
D03*
X307000D02*
D03*
X299000D02*
D03*
X291000D02*
D03*
X283000D02*
D03*
X275000D02*
D03*
D23*
X382000Y226000D02*
D03*
Y218000D02*
D03*
Y210000D02*
D03*
Y202000D02*
D03*
Y194000D02*
D03*
Y186000D02*
D03*
Y178000D02*
D03*
Y170000D02*
D03*
Y162000D02*
D03*
Y154000D02*
D03*
Y146000D02*
D03*
X264000D02*
D03*
Y154000D02*
D03*
Y162000D02*
D03*
Y170000D02*
D03*
Y178000D02*
D03*
Y186000D02*
D03*
Y194000D02*
D03*
Y202000D02*
D03*
Y210000D02*
D03*
Y218000D02*
D03*
Y226000D02*
D03*
D38*
X272500Y40750D02*
D03*
X317500D02*
D03*
X272500Y19250D02*
D03*
X317500D02*
D03*
X172500Y40750D02*
D03*
X217500D02*
D03*
X172500Y19250D02*
D03*
X217500D02*
D03*
D40*
X114050Y84638D02*
D03*
X101350D02*
D03*
X88650D02*
D03*
X75950D02*
D03*
Y35362D02*
D03*
X88650D02*
D03*
X101350D02*
D03*
X114050D02*
D03*
D41*
X360000Y360000D02*
D03*
X535000Y215000D02*
D03*
X555000D02*
D03*
X575000D02*
D03*
D42*
X323000Y205750D02*
D03*
X303250D02*
D03*
Y186000D02*
D03*
Y166250D02*
D03*
X323000D02*
D03*
X342750D02*
D03*
Y186000D02*
D03*
Y205750D02*
D03*
X323000Y186000D02*
D03*
D43*
X263500Y235500D02*
D03*
Y136500D02*
D03*
X382500D02*
D03*
Y235500D02*
D03*
D44*
X351499Y359999D02*
D03*
X368499D02*
D03*
D45*
X535001Y206499D02*
D03*
Y223499D02*
D03*
X555001Y206499D02*
D03*
Y223499D02*
D03*
X575001Y206499D02*
D03*
Y223499D02*
D03*
D46*
X495000Y252000D02*
D03*
Y235000D02*
D03*
X240000Y21500D02*
D03*
Y38500D02*
D03*
X351000Y111500D02*
D03*
Y94500D02*
D03*
X140000Y38500D02*
D03*
Y21500D02*
D03*
D47*
X520000Y284300D02*
D03*
Y255700D02*
D03*
D48*
X473000Y228000D02*
D03*
X427000D02*
D03*
X450000D02*
D03*
D49*
Y290000D02*
D03*
D50*
X495000Y272500D02*
D03*
Y287500D02*
D03*
X155000Y22500D02*
D03*
Y37500D02*
D03*
X255000Y22500D02*
D03*
Y37500D02*
D03*
D51*
X163500Y245000D02*
D03*
X146500D02*
D03*
X101500Y350000D02*
D03*
X118500D02*
D03*
X221500Y360000D02*
D03*
X238500D02*
D03*
X316500D02*
D03*
X333500D02*
D03*
X218500Y137500D02*
D03*
X201500D02*
D03*
X218500Y197500D02*
D03*
X201500D02*
D03*
Y167500D02*
D03*
X218500D02*
D03*
X201500Y182500D02*
D03*
X218500D02*
D03*
X201500Y152500D02*
D03*
X218500D02*
D03*
X61500Y360000D02*
D03*
X78500D02*
D03*
X163500Y295000D02*
D03*
X146500D02*
D03*
D52*
X195000Y215750D02*
D03*
Y234250D02*
D03*
X215000Y215750D02*
D03*
Y234250D02*
D03*
X235000Y215750D02*
D03*
Y234250D02*
D03*
X450000Y185750D02*
D03*
Y204250D02*
D03*
X475000Y185750D02*
D03*
Y204250D02*
D03*
D53*
X98150Y260000D02*
D03*
X121850Y269500D02*
D03*
Y250500D02*
D03*
X148150Y279500D02*
D03*
Y260500D02*
D03*
X171850Y270000D02*
D03*
X98150Y309500D02*
D03*
Y290500D02*
D03*
X121850Y300000D02*
D03*
D54*
X125750Y330000D02*
D03*
X94250D02*
D03*
D55*
X190000Y295750D02*
D03*
Y264250D02*
D03*
D56*
X202500Y360000D02*
D03*
X187500D02*
D03*
X297500D02*
D03*
X282500D02*
D03*
X217500Y122000D02*
D03*
X202500D02*
D03*
X47500Y360000D02*
D03*
X32500D02*
D03*
D57*
X500500Y335000D02*
D03*
X494000D02*
D03*
X487500D02*
D03*
X481000D02*
D03*
X474500D02*
D03*
D58*
X519500Y337250D02*
D03*
X455500D02*
D03*
D59*
X499500Y361750D02*
D03*
X475500D02*
D03*
D60*
X171349Y184637D02*
D03*
X158649D02*
D03*
X145949D02*
D03*
X184049D02*
D03*
Y135361D02*
D03*
X171349D02*
D03*
X158649D02*
D03*
X145949D02*
D03*
D61*
X95000Y60000D02*
D03*
D62*
X85000Y145000D02*
D03*
Y205000D02*
D03*
D63*
X105000Y145000D02*
D03*
Y205000D02*
D03*
D64*
X567000Y358100D02*
D03*
Y332700D02*
D03*
X567000Y307300D02*
D03*
X257300Y330000D02*
D03*
X282700Y330000D02*
D03*
X308100D02*
D03*
D65*
X567000Y281900D02*
D03*
D66*
X26000Y132700D02*
D03*
D67*
Y107300D02*
D03*
Y81900D02*
D03*
Y158100D02*
D03*
Y183500D02*
D03*
D68*
Y56500D02*
D03*
D69*
X231900Y330000D02*
D03*
D70*
X155000Y325000D02*
D03*
X385000D02*
D03*
X155000Y90000D02*
D03*
X385000D02*
D03*
D71*
X520500Y361750D02*
D03*
X454500D02*
D03*
D72*
X520500D02*
D03*
X454500D02*
D03*
D73*
X525000Y20000D02*
D03*
D74*
X475000D02*
D03*
X525000Y165000D02*
D03*
X500000D02*
D03*
X475000D02*
D03*
D75*
X557000Y90000D02*
D03*
X443000D02*
D03*
D76*
X40000Y265000D02*
D03*
D77*
Y315000D02*
D03*
D78*
X120000Y65000D02*
D03*
Y55000D02*
D03*
X70000D02*
D03*
Y65000D02*
D03*
X90000D02*
D03*
X100000D02*
D03*
X110000D02*
D03*
Y55000D02*
D03*
X100000D02*
D03*
X90000D02*
D03*
X80000D02*
D03*
Y65000D02*
D03*
M02*
