G04*
G04 #@! TF.GenerationSoftware,Altium Limited,Altium Designer,23.4.1 (23)*
G04*
G04 Layer_Color=16711935*
%FSLAX44Y44*%
%MOMM*%
G71*
G04*
G04 #@! TF.SameCoordinates,B15F27E1-BD37-4E37-B4E4-94D8F929397A*
G04*
G04*
G04 #@! TF.FilePolarity,Negative*
G04*
G01*
G75*
G04:AMPARAMS|DCode=46|XSize=1.1032mm|YSize=1.0032mm|CornerRadius=0.1616mm|HoleSize=0mm|Usage=FLASHONLY|Rotation=90.000|XOffset=0mm|YOffset=0mm|HoleType=Round|Shape=RoundedRectangle|*
%AMROUNDEDRECTD46*
21,1,1.1032,0.6800,0,0,90.0*
21,1,0.7800,1.0032,0,0,90.0*
1,1,0.3232,0.3400,0.3900*
1,1,0.3232,0.3400,-0.3900*
1,1,0.3232,-0.3400,-0.3900*
1,1,0.3232,-0.3400,0.3900*
%
%ADD46ROUNDEDRECTD46*%
G04:AMPARAMS|DCode=51|XSize=1.1032mm|YSize=1.0032mm|CornerRadius=0.1616mm|HoleSize=0mm|Usage=FLASHONLY|Rotation=0.000|XOffset=0mm|YOffset=0mm|HoleType=Round|Shape=RoundedRectangle|*
%AMROUNDEDRECTD51*
21,1,1.1032,0.6800,0,0,0.0*
21,1,0.7800,1.0032,0,0,0.0*
1,1,0.3232,0.3900,-0.3400*
1,1,0.3232,-0.3900,-0.3400*
1,1,0.3232,-0.3900,0.3400*
1,1,0.3232,0.3900,0.3400*
%
%ADD51ROUNDEDRECTD51*%
%ADD62R,1.7032X2.2032*%
%ADD63O,1.7032X2.2032*%
%ADD64C,1.7032*%
%ADD65R,1.7032X1.7032*%
%ADD66O,2.3368X2.0828*%
%ADD67O,2.3368X2.0320*%
%ADD68R,2.3368X2.0320*%
%ADD69R,1.7032X1.7032*%
%ADD70C,4.2032*%
%ADD71C,0.7032*%
%ADD72O,1.1032X2.0032*%
%ADD73R,1.8532X1.8532*%
%ADD74C,1.8532*%
%ADD75O,3.2032X6.2032*%
%ADD76R,3.2032X3.2032*%
%ADD77C,3.2032*%
%ADD78C,1.0032*%
D46*
X525000Y206500D02*
D03*
Y223500D02*
D03*
X565000Y206500D02*
D03*
Y223500D02*
D03*
X545000D02*
D03*
Y206500D02*
D03*
D51*
X240500Y309000D02*
D03*
X223500D02*
D03*
D62*
X85000Y145000D02*
D03*
Y205000D02*
D03*
D63*
X105000Y145000D02*
D03*
Y205000D02*
D03*
D64*
X567000Y358100D02*
D03*
Y332700D02*
D03*
X567000Y307300D02*
D03*
X257300Y330000D02*
D03*
X282700Y330000D02*
D03*
X308100D02*
D03*
D65*
X567000Y281900D02*
D03*
D66*
X26000Y132700D02*
D03*
D67*
Y107300D02*
D03*
Y81900D02*
D03*
Y158100D02*
D03*
Y183500D02*
D03*
D68*
Y56500D02*
D03*
D69*
X231900Y330000D02*
D03*
D70*
X155000Y325000D02*
D03*
X385000D02*
D03*
X155000Y90000D02*
D03*
X385000D02*
D03*
D71*
X520500Y361750D02*
D03*
X454500D02*
D03*
D72*
X520500D02*
D03*
X454500D02*
D03*
D73*
X525000Y20000D02*
D03*
D74*
X475000D02*
D03*
X525000Y165000D02*
D03*
X500000D02*
D03*
X475000D02*
D03*
D75*
X557000Y90000D02*
D03*
X443000D02*
D03*
D76*
X40000Y265000D02*
D03*
D77*
Y315000D02*
D03*
D78*
X120000Y65000D02*
D03*
Y55000D02*
D03*
X70000D02*
D03*
Y65000D02*
D03*
X90000D02*
D03*
X100000D02*
D03*
X110000D02*
D03*
Y55000D02*
D03*
X100000D02*
D03*
X90000D02*
D03*
X80000D02*
D03*
Y65000D02*
D03*
M02*
