M48
;Layer_Color=9474304
;FILE_FORMAT=4:4
METRIC,LZ
;TYPE=PLATED
T1F00S00C0.3000
T2F00S00C0.4000
T4F00S00C0.7000
T5F00S00C1.0000
T6F00S00C1.0668
T7F00S00C1.1000
T8F00S00C1.5000
T10F00S00C3.1500
;TYPE=NON_PLATED
T11F00S00C0.5000
%
T01
X00225Y0005
X00255
X00285
X00315
X00344Y00053
X00339Y00078
X00331
X003Y0008
X0027
X0024
X00225Y0011
X00231Y00161
X0024Y002
X00235Y00207
X00285Y0017
X00283359Y00120359
X00307Y0012
X00323
X00347
X00359Y00085
X00375Y0005
X00405
X00435
X00465
X00495
X00525
X00555
X00585
X0057Y0002
X0054
X0051
Y0008
X0048
X00465Y0011
X0048Y0014
X0051
X00525Y0011
X00585
X0057Y0014
X00585Y0017
X00575Y00194
X00551277Y00191982
X00525Y00195
X0051Y002
X00463Y00195
X0042Y002
X004Y00194
Y00186
X0039Y002
X0036
X00435Y0017
X0045Y0014
Y0002
X0042
X0039
X00195Y0005
X00173Y00058
X00165Y0005
X00135
X00114Y00098
Y00104
X001Y001075
X0012Y0014
X00144Y00155
X00158Y00166
X00165Y0017
X0018Y002
X0015
X0012
X0021Y0014
X00209Y00102
X0021Y0008
X0018
X0006
X00045Y0011
Y0005
X0006Y0002
X00076Y00018
X00088825Y000165
X00105Y0023
X00135
X00136909Y00246014
X00165Y0023
X0018Y0026
Y0032
X00195Y0035
X00165
X00135
X0006Y0032
X00045Y0029
Y0023
X0024Y0026
X00224Y003
X00239Y00351
X00255Y0035
X00285
X00315
X00345
X00375
X00405
X00412Y00371
X00435Y0035
X0045Y0032
X0048
X0051
X0054
X0057
X00555Y0035
X00555Y00252
X0054Y0026
X00535Y00269
X0048Y0026
X00502Y00235
X00585Y00234
X00405Y0023
X0042Y0026
X00424Y00287
X00405Y0029
X0036Y0032
X0033
T02
X0007Y00055
X0008
X0009
Y00065
X001
X0011
X0012
Y00055
X0011
X001
X0008Y00065
X0007
T04
X00085Y00145
X00105
Y00205
X00085
T05
X002319Y0033
X002573
X002827Y0033
X003081
X00567Y003327
X00567Y003073
Y002819
X00567Y003581
T06
X00026Y000565
Y000819
Y001073
Y001327
Y001581
Y001835
T07
X00475Y0002
X00525
Y00165
X005
X00475
T08
X0004Y00265
Y00315
T10
X00385Y0009
X00155
Y00325
X00385
T11
X004545Y0036175
X005205
M30
